%TF.GenerationSoftware,KiCad,Pcbnew,9.0.7+1*%
%TF.CreationDate,Date%
%TF.ProjectId,Input-Protection,496e7075-742d-4507-926f-74656374696f,1.0.0*%
%TF.SameCoordinates,Original*%
%TF.FileFunction,Legend,Bot*%
%TF.FilePolarity,Positive*%
%FSLAX46Y46*%
G04 Gerber Fmt 4.6, Leading zero omitted, Abs format (unit mm)*
G04 Created by KiCad*
%MOMM*%
%LPD*%
G01*
G04 APERTURE LIST*
G04 Aperture macros list*
%AMRoundRect*
0 Rectangle with rounded corners*
0 $1 Rounding radius*
0 $2 $3 $4 $5 $6 $7 $8 $9 X,Y pos of 4 corners*
0 Add a 4 corners polygon primitive as box body*
4,1,4,$2,$3,$4,$5,$6,$7,$8,$9,$2,$3,0*
0 Add four circle primitives for the rounded corners*
1,1,$1+$1,$2,$3*
1,1,$1+$1,$4,$5*
1,1,$1+$1,$6,$7*
1,1,$1+$1,$8,$9*
0 Add four rect primitives between the rounded corners*
20,1,$1+$1,$2,$3,$4,$5,0*
20,1,$1+$1,$4,$5,$6,$7,0*
20,1,$1+$1,$6,$7,$8,$9,0*
20,1,$1+$1,$8,$9,$2,$3,0*%
G04 Aperture macros list end*
%ADD10C,0.200000*%
%ADD11C,0.150000*%
%ADD12C,4.600000*%
%ADD13RoundRect,0.050000X1.000000X2.250000X-1.000000X2.250000X-1.000000X-2.250000X1.000000X-2.250000X0*%
%ADD14O,2.100000X4.100000*%
%ADD15O,4.100000X2.100000*%
%ADD16RoundRect,0.262500X0.787500X0.787500X-0.787500X0.787500X-0.787500X-0.787500X0.787500X-0.787500X0*%
%ADD17C,2.100000*%
%ADD18RoundRect,0.050000X-1.000000X-2.250000X1.000000X-2.250000X1.000000X2.250000X-1.000000X2.250000X0*%
G04 APERTURE END LIST*
D10*
X158440645Y-56400000D02*
X166440645Y-56400000D01*
X166440645Y-64150000D01*
X158440645Y-64150000D01*
X158440645Y-56400000D01*
X128940645Y-56400000D02*
X136940645Y-56400000D01*
X136940645Y-64150000D01*
X128940645Y-64150000D01*
X128940645Y-56400000D01*
D11*
G36*
X132181931Y-62804438D02*
G01*
X132253874Y-62876381D01*
X132294216Y-63037748D01*
X132294216Y-63352613D01*
X132253874Y-63513979D01*
X132181932Y-63585922D01*
X132113416Y-63620180D01*
X131958350Y-63620180D01*
X131889834Y-63585922D01*
X131817891Y-63513979D01*
X131777550Y-63352613D01*
X131777550Y-63037748D01*
X131817891Y-62876381D01*
X131889833Y-62804439D01*
X131958351Y-62770180D01*
X132113415Y-62770180D01*
X132181931Y-62804438D01*
G37*
G36*
X134458648Y-63881291D02*
G01*
X131516439Y-63881291D01*
X131516439Y-63028514D01*
X131627550Y-63028514D01*
X131627550Y-63361847D01*
X131627801Y-63364400D01*
X131627639Y-63365493D01*
X131628448Y-63370966D01*
X131628991Y-63376479D01*
X131629413Y-63377500D01*
X131629789Y-63380037D01*
X131677408Y-63570513D01*
X131682355Y-63584359D01*
X131685675Y-63588840D01*
X131687809Y-63593991D01*
X131697136Y-63605356D01*
X131792374Y-63700594D01*
X131798124Y-63705314D01*
X131799423Y-63706811D01*
X131801677Y-63708230D01*
X131803739Y-63709922D01*
X131805571Y-63710680D01*
X131811866Y-63714643D01*
X131907104Y-63762262D01*
X131920835Y-63767517D01*
X131923524Y-63767708D01*
X131926013Y-63768739D01*
X131940645Y-63770180D01*
X132131121Y-63770180D01*
X132145753Y-63768739D01*
X132148242Y-63767707D01*
X132150930Y-63767517D01*
X132164662Y-63762262D01*
X132259900Y-63714643D01*
X132266199Y-63710678D01*
X132268027Y-63709921D01*
X132270083Y-63708232D01*
X132272343Y-63706811D01*
X132273642Y-63705312D01*
X132279392Y-63700594D01*
X132374630Y-63605356D01*
X132383958Y-63593991D01*
X132386092Y-63588837D01*
X132389411Y-63584359D01*
X132394358Y-63570513D01*
X132441977Y-63380037D01*
X132442352Y-63377500D01*
X132442775Y-63376479D01*
X132443317Y-63370966D01*
X132444127Y-63365493D01*
X132443964Y-63364400D01*
X132444216Y-63361847D01*
X132444216Y-63028514D01*
X132443964Y-63025960D01*
X132444127Y-63024868D01*
X132443317Y-63019394D01*
X132442775Y-63013882D01*
X132442352Y-63012860D01*
X132441977Y-63010324D01*
X132410810Y-62885657D01*
X132722788Y-62885657D01*
X132722788Y-63695180D01*
X132724229Y-63709812D01*
X132735428Y-63736848D01*
X132756120Y-63757540D01*
X132783156Y-63768739D01*
X132812420Y-63768739D01*
X132839456Y-63757540D01*
X132860148Y-63736848D01*
X132871347Y-63709812D01*
X132872788Y-63695180D01*
X132872788Y-62903362D01*
X132907046Y-62834846D01*
X132937452Y-62804439D01*
X133005970Y-62770180D01*
X133161034Y-62770180D01*
X133229550Y-62804438D01*
X133259958Y-62834846D01*
X133294216Y-62903362D01*
X133294216Y-63695180D01*
X133295657Y-63709812D01*
X133306856Y-63736848D01*
X133327548Y-63757540D01*
X133354584Y-63768739D01*
X133383848Y-63768739D01*
X133410884Y-63757540D01*
X133431576Y-63736848D01*
X133442775Y-63709812D01*
X133444216Y-63695180D01*
X133444216Y-63680548D01*
X133628991Y-63680548D01*
X133628991Y-63709812D01*
X133640190Y-63736848D01*
X133660882Y-63757540D01*
X133687918Y-63768739D01*
X133702550Y-63770180D01*
X134273978Y-63770180D01*
X134288610Y-63768739D01*
X134315646Y-63757540D01*
X134336338Y-63736848D01*
X134347537Y-63709812D01*
X134347537Y-63680548D01*
X134336338Y-63653512D01*
X134315646Y-63632820D01*
X134288610Y-63621621D01*
X134273978Y-63620180D01*
X134063264Y-63620180D01*
X134063264Y-62695180D01*
X134061823Y-62680548D01*
X134050624Y-62653512D01*
X134029932Y-62632820D01*
X134002896Y-62621621D01*
X133973632Y-62621621D01*
X133946596Y-62632820D01*
X133925904Y-62653512D01*
X133914705Y-62680548D01*
X133913264Y-62695180D01*
X133913264Y-63620180D01*
X133702550Y-63620180D01*
X133687918Y-63621621D01*
X133660882Y-63632820D01*
X133640190Y-63653512D01*
X133628991Y-63680548D01*
X133444216Y-63680548D01*
X133444216Y-62885657D01*
X133442775Y-62871025D01*
X133441744Y-62868536D01*
X133441553Y-62865847D01*
X133436298Y-62852116D01*
X133388679Y-62756878D01*
X133384714Y-62750578D01*
X133383957Y-62748751D01*
X133382268Y-62746694D01*
X133380847Y-62744435D01*
X133379348Y-62743135D01*
X133374630Y-62737386D01*
X133327011Y-62689767D01*
X133321262Y-62685049D01*
X133319963Y-62683551D01*
X133317703Y-62682128D01*
X133315646Y-62680440D01*
X133313818Y-62679683D01*
X133307520Y-62675718D01*
X133212282Y-62628098D01*
X133198550Y-62622843D01*
X133195860Y-62622651D01*
X133193372Y-62621621D01*
X133178740Y-62620180D01*
X132988264Y-62620180D01*
X132973632Y-62621621D01*
X132971143Y-62622651D01*
X132968454Y-62622843D01*
X132954723Y-62628098D01*
X132859484Y-62675718D01*
X132853186Y-62679682D01*
X132851358Y-62680440D01*
X132849297Y-62682131D01*
X132847042Y-62683551D01*
X132845745Y-62685046D01*
X132839993Y-62689767D01*
X132792374Y-62737386D01*
X132787655Y-62743135D01*
X132786157Y-62744435D01*
X132784735Y-62746694D01*
X132783047Y-62748751D01*
X132782289Y-62750578D01*
X132778325Y-62756878D01*
X132730706Y-62852116D01*
X132725451Y-62865848D01*
X132725260Y-62868535D01*
X132724229Y-62871025D01*
X132722788Y-62885657D01*
X132410810Y-62885657D01*
X132394358Y-62819848D01*
X132389411Y-62806002D01*
X132386092Y-62801523D01*
X132383958Y-62796370D01*
X132374630Y-62785005D01*
X132279392Y-62689767D01*
X132273643Y-62685049D01*
X132272344Y-62683551D01*
X132270084Y-62682128D01*
X132268027Y-62680440D01*
X132266199Y-62679683D01*
X132259901Y-62675718D01*
X132164663Y-62628098D01*
X132150931Y-62622843D01*
X132148241Y-62622651D01*
X132145753Y-62621621D01*
X132131121Y-62620180D01*
X131940645Y-62620180D01*
X131926013Y-62621621D01*
X131923524Y-62622651D01*
X131920835Y-62622843D01*
X131907104Y-62628098D01*
X131811865Y-62675718D01*
X131805572Y-62679679D01*
X131803739Y-62680439D01*
X131801674Y-62682133D01*
X131799423Y-62683551D01*
X131798127Y-62685044D01*
X131792374Y-62689767D01*
X131697136Y-62785005D01*
X131687809Y-62796370D01*
X131685675Y-62801520D01*
X131682355Y-62806002D01*
X131677408Y-62819848D01*
X131629789Y-63010324D01*
X131629413Y-63012860D01*
X131628991Y-63013882D01*
X131628448Y-63019394D01*
X131627639Y-63024868D01*
X131627801Y-63025960D01*
X131627550Y-63028514D01*
X131516439Y-63028514D01*
X131516439Y-62509069D01*
X134458648Y-62509069D01*
X134458648Y-63881291D01*
G37*
G36*
X165434839Y-58630702D02*
G01*
X163302742Y-58630702D01*
X163302742Y-58435800D01*
X163413853Y-58435800D01*
X163415928Y-58464990D01*
X163429014Y-58491163D01*
X163451121Y-58510337D01*
X163478884Y-58519591D01*
X163508074Y-58517516D01*
X163534247Y-58504430D01*
X163553421Y-58482323D01*
X163559415Y-58468897D01*
X163821597Y-57682350D01*
X164083779Y-58468897D01*
X164089773Y-58482322D01*
X164108947Y-58504429D01*
X164135120Y-58517516D01*
X164164310Y-58519591D01*
X164192072Y-58510337D01*
X164214180Y-58491163D01*
X164227266Y-58464989D01*
X164229341Y-58435799D01*
X164226081Y-58421463D01*
X164022761Y-57811501D01*
X164414705Y-57811501D01*
X164414705Y-57840765D01*
X164425904Y-57867801D01*
X164446596Y-57888493D01*
X164473632Y-57899692D01*
X164488264Y-57901133D01*
X164794216Y-57901133D01*
X164794216Y-58207085D01*
X164795657Y-58221717D01*
X164806856Y-58248753D01*
X164827548Y-58269445D01*
X164854584Y-58280644D01*
X164883848Y-58280644D01*
X164910884Y-58269445D01*
X164931576Y-58248753D01*
X164942775Y-58221717D01*
X164944216Y-58207085D01*
X164944216Y-57901133D01*
X165250169Y-57901133D01*
X165264801Y-57899692D01*
X165291837Y-57888493D01*
X165312529Y-57867801D01*
X165323728Y-57840765D01*
X165323728Y-57811501D01*
X165312529Y-57784465D01*
X165291837Y-57763773D01*
X165264801Y-57752574D01*
X165250169Y-57751133D01*
X164944216Y-57751133D01*
X164944216Y-57445180D01*
X164942775Y-57430548D01*
X164931576Y-57403512D01*
X164910884Y-57382820D01*
X164883848Y-57371621D01*
X164854584Y-57371621D01*
X164827548Y-57382820D01*
X164806856Y-57403512D01*
X164795657Y-57430548D01*
X164794216Y-57445180D01*
X164794216Y-57751133D01*
X164488264Y-57751133D01*
X164473632Y-57752574D01*
X164446596Y-57763773D01*
X164425904Y-57784465D01*
X164414705Y-57811501D01*
X164022761Y-57811501D01*
X163892748Y-57421463D01*
X163886754Y-57408037D01*
X163883242Y-57403988D01*
X163880847Y-57399197D01*
X163873743Y-57393035D01*
X163867580Y-57385930D01*
X163862786Y-57383533D01*
X163858739Y-57380023D01*
X163849817Y-57377049D01*
X163841407Y-57372844D01*
X163836062Y-57372464D01*
X163830977Y-57370769D01*
X163821597Y-57371435D01*
X163812217Y-57370769D01*
X163807131Y-57372464D01*
X163801787Y-57372844D01*
X163793379Y-57377048D01*
X163784454Y-57380023D01*
X163780403Y-57383536D01*
X163775614Y-57385931D01*
X163769455Y-57393031D01*
X163762347Y-57399197D01*
X163759950Y-57403990D01*
X163756440Y-57408038D01*
X163750446Y-57421463D01*
X163417113Y-58421463D01*
X163413853Y-58435800D01*
X163302742Y-58435800D01*
X163302742Y-57259658D01*
X165434839Y-57259658D01*
X165434839Y-58630702D01*
G37*
G36*
X131934839Y-58630702D02*
G01*
X129802742Y-58630702D01*
X129802742Y-58435800D01*
X129913853Y-58435800D01*
X129915928Y-58464990D01*
X129929014Y-58491163D01*
X129951121Y-58510337D01*
X129978884Y-58519591D01*
X130008074Y-58517516D01*
X130034247Y-58504430D01*
X130053421Y-58482323D01*
X130059415Y-58468897D01*
X130321597Y-57682350D01*
X130583779Y-58468897D01*
X130589773Y-58482322D01*
X130608947Y-58504429D01*
X130635120Y-58517516D01*
X130664310Y-58519591D01*
X130692072Y-58510337D01*
X130714180Y-58491163D01*
X130727266Y-58464989D01*
X130729341Y-58435799D01*
X130726081Y-58421463D01*
X130522761Y-57811501D01*
X130914705Y-57811501D01*
X130914705Y-57840765D01*
X130925904Y-57867801D01*
X130946596Y-57888493D01*
X130973632Y-57899692D01*
X130988264Y-57901133D01*
X131750169Y-57901133D01*
X131764801Y-57899692D01*
X131791837Y-57888493D01*
X131812529Y-57867801D01*
X131823728Y-57840765D01*
X131823728Y-57811501D01*
X131812529Y-57784465D01*
X131791837Y-57763773D01*
X131764801Y-57752574D01*
X131750169Y-57751133D01*
X130988264Y-57751133D01*
X130973632Y-57752574D01*
X130946596Y-57763773D01*
X130925904Y-57784465D01*
X130914705Y-57811501D01*
X130522761Y-57811501D01*
X130392748Y-57421463D01*
X130386754Y-57408037D01*
X130383242Y-57403988D01*
X130380847Y-57399197D01*
X130373743Y-57393035D01*
X130367580Y-57385930D01*
X130362786Y-57383533D01*
X130358739Y-57380023D01*
X130349817Y-57377049D01*
X130341407Y-57372844D01*
X130336062Y-57372464D01*
X130330977Y-57370769D01*
X130321597Y-57371435D01*
X130312217Y-57370769D01*
X130307131Y-57372464D01*
X130301787Y-57372844D01*
X130293379Y-57377048D01*
X130284454Y-57380023D01*
X130280403Y-57383536D01*
X130275614Y-57385931D01*
X130269455Y-57393031D01*
X130262347Y-57399197D01*
X130259950Y-57403990D01*
X130256440Y-57408038D01*
X130250446Y-57421463D01*
X129917113Y-58421463D01*
X129913853Y-58435800D01*
X129802742Y-58435800D01*
X129802742Y-57259658D01*
X131934839Y-57259658D01*
X131934839Y-58630702D01*
G37*
G36*
X161434839Y-58630702D02*
G01*
X159302742Y-58630702D01*
X159302742Y-58435800D01*
X159413853Y-58435800D01*
X159415928Y-58464990D01*
X159429014Y-58491163D01*
X159451121Y-58510337D01*
X159478884Y-58519591D01*
X159508074Y-58517516D01*
X159534247Y-58504430D01*
X159553421Y-58482323D01*
X159559415Y-58468897D01*
X159821597Y-57682350D01*
X160083779Y-58468897D01*
X160089773Y-58482322D01*
X160108947Y-58504429D01*
X160135120Y-58517516D01*
X160164310Y-58519591D01*
X160192072Y-58510337D01*
X160214180Y-58491163D01*
X160227266Y-58464989D01*
X160229341Y-58435799D01*
X160226081Y-58421463D01*
X160022761Y-57811501D01*
X160414705Y-57811501D01*
X160414705Y-57840765D01*
X160425904Y-57867801D01*
X160446596Y-57888493D01*
X160473632Y-57899692D01*
X160488264Y-57901133D01*
X161250169Y-57901133D01*
X161264801Y-57899692D01*
X161291837Y-57888493D01*
X161312529Y-57867801D01*
X161323728Y-57840765D01*
X161323728Y-57811501D01*
X161312529Y-57784465D01*
X161291837Y-57763773D01*
X161264801Y-57752574D01*
X161250169Y-57751133D01*
X160488264Y-57751133D01*
X160473632Y-57752574D01*
X160446596Y-57763773D01*
X160425904Y-57784465D01*
X160414705Y-57811501D01*
X160022761Y-57811501D01*
X159892748Y-57421463D01*
X159886754Y-57408037D01*
X159883242Y-57403988D01*
X159880847Y-57399197D01*
X159873743Y-57393035D01*
X159867580Y-57385930D01*
X159862786Y-57383533D01*
X159858739Y-57380023D01*
X159849817Y-57377049D01*
X159841407Y-57372844D01*
X159836062Y-57372464D01*
X159830977Y-57370769D01*
X159821597Y-57371435D01*
X159812217Y-57370769D01*
X159807131Y-57372464D01*
X159801787Y-57372844D01*
X159793379Y-57377048D01*
X159784454Y-57380023D01*
X159780403Y-57383536D01*
X159775614Y-57385931D01*
X159769455Y-57393031D01*
X159762347Y-57399197D01*
X159759950Y-57403990D01*
X159756440Y-57408038D01*
X159750446Y-57421463D01*
X159417113Y-58421463D01*
X159413853Y-58435800D01*
X159302742Y-58435800D01*
X159302742Y-57259658D01*
X161434839Y-57259658D01*
X161434839Y-58630702D01*
G37*
G36*
X163150565Y-63881108D02*
G01*
X161730725Y-63881108D01*
X161730725Y-62695180D01*
X161841836Y-62695180D01*
X161841836Y-63695180D01*
X161843277Y-63709812D01*
X161854476Y-63736848D01*
X161875168Y-63757540D01*
X161902204Y-63768739D01*
X161931468Y-63768739D01*
X161958504Y-63757540D01*
X161979196Y-63736848D01*
X161990395Y-63709812D01*
X161991836Y-63695180D01*
X161991836Y-62695180D01*
X162318026Y-62695180D01*
X162318026Y-63695180D01*
X162318396Y-63698943D01*
X162318209Y-63700419D01*
X162318730Y-63702329D01*
X162319467Y-63709812D01*
X162323284Y-63719027D01*
X162325909Y-63728651D01*
X162328836Y-63732431D01*
X162330666Y-63736848D01*
X162337716Y-63743898D01*
X162343826Y-63751788D01*
X162347979Y-63754161D01*
X162351358Y-63757540D01*
X162360570Y-63761356D01*
X162369235Y-63766307D01*
X162373978Y-63766909D01*
X162378394Y-63768739D01*
X162388368Y-63768739D01*
X162398265Y-63769997D01*
X162402877Y-63768739D01*
X162407658Y-63768739D01*
X162416873Y-63764921D01*
X162426497Y-63762297D01*
X162430277Y-63759369D01*
X162434694Y-63757540D01*
X162441744Y-63750489D01*
X162449634Y-63744380D01*
X162453986Y-63738247D01*
X162455386Y-63736848D01*
X162455955Y-63735473D01*
X162458144Y-63732390D01*
X162889454Y-62977596D01*
X162889454Y-63695180D01*
X162890895Y-63709812D01*
X162902094Y-63736848D01*
X162922786Y-63757540D01*
X162949822Y-63768739D01*
X162979086Y-63768739D01*
X163006122Y-63757540D01*
X163026814Y-63736848D01*
X163038013Y-63709812D01*
X163039454Y-63695180D01*
X163039454Y-62695180D01*
X163039083Y-62691416D01*
X163039271Y-62689941D01*
X163038749Y-62688030D01*
X163038013Y-62680548D01*
X163034195Y-62671332D01*
X163031571Y-62661709D01*
X163028643Y-62657928D01*
X163026814Y-62653512D01*
X163019763Y-62646461D01*
X163013654Y-62638572D01*
X163009500Y-62636198D01*
X163006122Y-62632820D01*
X162996909Y-62629003D01*
X162988245Y-62624053D01*
X162983501Y-62623450D01*
X162979086Y-62621621D01*
X162969112Y-62621621D01*
X162959215Y-62620363D01*
X162954603Y-62621621D01*
X162949822Y-62621621D01*
X162940605Y-62625438D01*
X162930984Y-62628063D01*
X162927204Y-62630989D01*
X162922786Y-62632820D01*
X162915734Y-62639871D01*
X162907846Y-62645980D01*
X162903491Y-62652114D01*
X162902094Y-62653512D01*
X162901525Y-62654884D01*
X162899336Y-62657969D01*
X162468026Y-63412763D01*
X162468026Y-62695180D01*
X162466585Y-62680548D01*
X162455386Y-62653512D01*
X162434694Y-62632820D01*
X162407658Y-62621621D01*
X162378394Y-62621621D01*
X162351358Y-62632820D01*
X162330666Y-62653512D01*
X162319467Y-62680548D01*
X162318026Y-62695180D01*
X161991836Y-62695180D01*
X161990395Y-62680548D01*
X161979196Y-62653512D01*
X161958504Y-62632820D01*
X161931468Y-62621621D01*
X161902204Y-62621621D01*
X161875168Y-62632820D01*
X161854476Y-62653512D01*
X161843277Y-62680548D01*
X161841836Y-62695180D01*
X161730725Y-62695180D01*
X161730725Y-62509252D01*
X163150565Y-62509252D01*
X163150565Y-63881108D01*
G37*
G36*
X135934839Y-58630702D02*
G01*
X133802742Y-58630702D01*
X133802742Y-58435800D01*
X133913853Y-58435800D01*
X133915928Y-58464990D01*
X133929014Y-58491163D01*
X133951121Y-58510337D01*
X133978884Y-58519591D01*
X134008074Y-58517516D01*
X134034247Y-58504430D01*
X134053421Y-58482323D01*
X134059415Y-58468897D01*
X134321597Y-57682350D01*
X134583779Y-58468897D01*
X134589773Y-58482322D01*
X134608947Y-58504429D01*
X134635120Y-58517516D01*
X134664310Y-58519591D01*
X134692072Y-58510337D01*
X134714180Y-58491163D01*
X134727266Y-58464989D01*
X134729341Y-58435799D01*
X134726081Y-58421463D01*
X134522761Y-57811501D01*
X134914705Y-57811501D01*
X134914705Y-57840765D01*
X134925904Y-57867801D01*
X134946596Y-57888493D01*
X134973632Y-57899692D01*
X134988264Y-57901133D01*
X135294216Y-57901133D01*
X135294216Y-58207085D01*
X135295657Y-58221717D01*
X135306856Y-58248753D01*
X135327548Y-58269445D01*
X135354584Y-58280644D01*
X135383848Y-58280644D01*
X135410884Y-58269445D01*
X135431576Y-58248753D01*
X135442775Y-58221717D01*
X135444216Y-58207085D01*
X135444216Y-57901133D01*
X135750169Y-57901133D01*
X135764801Y-57899692D01*
X135791837Y-57888493D01*
X135812529Y-57867801D01*
X135823728Y-57840765D01*
X135823728Y-57811501D01*
X135812529Y-57784465D01*
X135791837Y-57763773D01*
X135764801Y-57752574D01*
X135750169Y-57751133D01*
X135444216Y-57751133D01*
X135444216Y-57445180D01*
X135442775Y-57430548D01*
X135431576Y-57403512D01*
X135410884Y-57382820D01*
X135383848Y-57371621D01*
X135354584Y-57371621D01*
X135327548Y-57382820D01*
X135306856Y-57403512D01*
X135295657Y-57430548D01*
X135294216Y-57445180D01*
X135294216Y-57751133D01*
X134988264Y-57751133D01*
X134973632Y-57752574D01*
X134946596Y-57763773D01*
X134925904Y-57784465D01*
X134914705Y-57811501D01*
X134522761Y-57811501D01*
X134392748Y-57421463D01*
X134386754Y-57408037D01*
X134383242Y-57403988D01*
X134380847Y-57399197D01*
X134373743Y-57393035D01*
X134367580Y-57385930D01*
X134362786Y-57383533D01*
X134358739Y-57380023D01*
X134349817Y-57377049D01*
X134341407Y-57372844D01*
X134336062Y-57372464D01*
X134330977Y-57370769D01*
X134321597Y-57371435D01*
X134312217Y-57370769D01*
X134307131Y-57372464D01*
X134301787Y-57372844D01*
X134293379Y-57377048D01*
X134284454Y-57380023D01*
X134280403Y-57383536D01*
X134275614Y-57385931D01*
X134269455Y-57393031D01*
X134262347Y-57399197D01*
X134259950Y-57403990D01*
X134256440Y-57408038D01*
X134250446Y-57421463D01*
X133917113Y-58421463D01*
X133913853Y-58435800D01*
X133802742Y-58435800D01*
X133802742Y-57259658D01*
X135934839Y-57259658D01*
X135934839Y-58630702D01*
G37*
%LPC*%
D12*
%TO.C,H904*%
X125690645Y-102650000D03*
%TD*%
D13*
%TO.C,J101*%
X157990645Y-71150000D03*
D14*
X164190645Y-71150000D03*
D15*
X161190645Y-66450000D03*
%TD*%
D12*
%TO.C,H902*%
X169690645Y-58650000D03*
%TD*%
D16*
%TO.C,J102*%
X164375000Y-60250000D03*
D17*
X160565000Y-60250000D03*
%TD*%
D12*
%TO.C,H903*%
X169690645Y-102650000D03*
%TD*%
D18*
%TO.C,J104*%
X137390645Y-71150000D03*
D14*
X131190645Y-71150000D03*
D15*
X134190645Y-75850000D03*
%TD*%
D16*
%TO.C,J103*%
X134875000Y-60250000D03*
D17*
X131065000Y-60250000D03*
%TD*%
D12*
%TO.C,H901*%
X125690645Y-58650000D03*
%TD*%
%LPD*%
M02*
