M48
; DRILL file {KiCad 9.0.7+1} date 2026-03-06T14:00:59+0000
; FORMAT={-:-/ absolute / metric / decimal}
; #@! TF.CreationDate,2026-03-06T14:00:59+00:00
; #@! TF.GenerationSoftware,Kicad,Pcbnew,9.0.7+1
; #@! TF.FileFunction,Plated,1,2,PTH
FMAT,2
METRIC
; #@! TA.AperFunction,Plated,PTH,ViaDrill
T1C0.300
; #@! TA.AperFunction,Plated,PTH,ViaDrill
T2C0.400
; #@! TA.AperFunction,Plated,PTH,ComponentDrill
T3C1.000
; #@! TA.AperFunction,Plated,PTH,ComponentDrill
T4C1.100
; #@! TA.AperFunction,Plated,PTH,ComponentDrill
T5C2.700
%
G90
G05
T1
X124.491Y-82.9
X124.491Y-84.5
X125.741Y-96.1
X128.691Y-98.555
X129.066Y-78.05
X131.866Y-92.4
X131.866Y-94.15
X133.516Y-92.4
X133.516Y-94.15
X135.491Y-86.85
X135.691Y-90.9
X136.191Y-89.625
X137.191Y-93.15
X137.291Y-89.15
X137.441Y-100.4
X137.441Y-101.9
X138.191Y-92.15
X138.191Y-96.4
X138.291Y-86.85
X140.691Y-93.15
X141.191Y-57.15
X143.191Y-99.9
X143.291Y-86.9
X143.441Y-85.65
X144.191Y-92.35
X144.941Y-103.15
X146.441Y-89.15
X146.691Y-94.65
X146.691Y-98.555
X148.641Y-83.65
X148.691Y-94.65
X149.191Y-73.15
X149.191Y-89.15
X149.491Y-93.45
X150.441Y-88.15
X150.691Y-68.15
X150.691Y-90.9
X152.191Y-99.9
X153.191Y-71.9
X153.691Y-99.05
X154.691Y-81.9
X155.091Y-100.65
X156.091Y-91.05
X156.091Y-94.65
X156.641Y-81.9
X156.941Y-83.65
X157.191Y-97.55
X158.691Y-98.555
X160.941Y-80.05
X165.691Y-90.9
X166.691Y-97.285
X166.691Y-98.555
T2
X158.066Y-101.15
T4
X131.065Y-60.25
X134.875Y-60.25
X160.565Y-60.25
X164.375Y-60.25
T5
X125.691Y-58.65
X125.691Y-102.65
X169.691Y-58.65
X169.691Y-102.65
T3
G00X131.191Y-70.15
M15
G01X131.191Y-72.15
M16
G05
G00X133.191Y-75.85
M15
G01X135.191Y-75.85
M16
G05
G00X137.391Y-69.9
M15
G01X137.391Y-72.4
M16
G05
G00X157.991Y-72.4
M15
G01X157.991Y-69.9
M16
G05
G00X162.191Y-66.45
M15
G01X160.191Y-66.45
M16
G05
G00X164.191Y-72.15
M15
G01X164.191Y-70.15
M16
G05
M30
