%TF.GenerationSoftware,KiCad,Pcbnew,9.0.7+1*%
%TF.CreationDate,Date%
%TF.ProjectId,Input-Protection,496e7075-742d-4507-926f-74656374696f,1.0.0*%
%TF.SameCoordinates,Original*%
%TF.FileFunction,Paste,Top*%
%TF.FilePolarity,Positive*%
%FSLAX46Y46*%
G04 Gerber Fmt 4.6, Leading zero omitted, Abs format (unit mm)*
G04 Created by KiCad*
%MOMM*%
%LPD*%
G01*
G04 APERTURE LIST*
G04 Aperture macros list*
%AMRoundRect*
0 Rectangle with rounded corners*
0 $1 Rounding radius*
0 $2 $3 $4 $5 $6 $7 $8 $9 X,Y pos of 4 corners*
0 Add a 4 corners polygon primitive as box body*
4,1,4,$2,$3,$4,$5,$6,$7,$8,$9,$2,$3,0*
0 Add four circle primitives for the rounded corners*
1,1,$1+$1,$2,$3*
1,1,$1+$1,$4,$5*
1,1,$1+$1,$6,$7*
1,1,$1+$1,$8,$9*
0 Add four rect primitives between the rounded corners*
20,1,$1+$1,$2,$3,$4,$5,0*
20,1,$1+$1,$4,$5,$6,$7,0*
20,1,$1+$1,$6,$7,$8,$9,0*
20,1,$1+$1,$8,$9,$2,$3,0*%
G04 Aperture macros list end*
%ADD10RoundRect,0.200000X-0.275000X0.200000X-0.275000X-0.200000X0.275000X-0.200000X0.275000X0.200000X0*%
%ADD11RoundRect,0.200000X0.200000X0.275000X-0.200000X0.275000X-0.200000X-0.275000X0.200000X-0.275000X0*%
%ADD12RoundRect,0.225000X-0.225000X-0.250000X0.225000X-0.250000X0.225000X0.250000X-0.225000X0.250000X0*%
%ADD13RoundRect,0.225000X0.225000X0.250000X-0.225000X0.250000X-0.225000X-0.250000X0.225000X-0.250000X0*%
%ADD14RoundRect,0.200000X0.275000X-0.200000X0.275000X0.200000X-0.275000X0.200000X-0.275000X-0.200000X0*%
%ADD15RoundRect,0.225000X0.250000X-0.225000X0.250000X0.225000X-0.250000X0.225000X-0.250000X-0.225000X0*%
%ADD16RoundRect,0.112500X-0.112500X0.187500X-0.112500X-0.187500X0.112500X-0.187500X0.112500X0.187500X0*%
%ADD17RoundRect,0.200000X-0.200000X-0.275000X0.200000X-0.275000X0.200000X0.275000X-0.200000X0.275000X0*%
%ADD18RoundRect,0.150000X-0.587500X-0.150000X0.587500X-0.150000X0.587500X0.150000X-0.587500X0.150000X0*%
%ADD19RoundRect,0.150000X0.587500X0.150000X-0.587500X0.150000X-0.587500X-0.150000X0.587500X-0.150000X0*%
%ADD20RoundRect,0.250000X-0.312500X-0.625000X0.312500X-0.625000X0.312500X0.625000X-0.312500X0.625000X0*%
%ADD21R,2.413000X0.914400*%
%ADD22R,6.070600X5.511800*%
%ADD23RoundRect,0.150000X-0.825000X-0.150000X0.825000X-0.150000X0.825000X0.150000X-0.825000X0.150000X0*%
%ADD24RoundRect,0.243750X0.243750X0.456250X-0.243750X0.456250X-0.243750X-0.456250X0.243750X-0.456250X0*%
%ADD25RoundRect,0.112500X0.112500X-0.187500X0.112500X0.187500X-0.112500X0.187500X-0.112500X-0.187500X0*%
%ADD26RoundRect,0.250000X-1.425000X0.362500X-1.425000X-0.362500X1.425000X-0.362500X1.425000X0.362500X0*%
%ADD27RoundRect,0.150000X-0.150000X0.512500X-0.150000X-0.512500X0.150000X-0.512500X0.150000X0.512500X0*%
%ADD28RoundRect,0.150000X-0.150000X0.587500X-0.150000X-0.587500X0.150000X-0.587500X0.150000X0.587500X0*%
G04 APERTURE END LIST*
D10*
%TO.C,R704*%
X152190645Y-77150000D03*
X152190645Y-78800000D03*
%TD*%
D11*
%TO.C,R502*%
X133515645Y-91150000D03*
X131865645Y-91150000D03*
%TD*%
D10*
%TO.C,R302*%
X130065645Y-82875000D03*
X130065645Y-84525000D03*
%TD*%
D12*
%TO.C,C701*%
X150140645Y-73150000D03*
X151690645Y-73150000D03*
%TD*%
D13*
%TO.C,C504*%
X139940645Y-89150000D03*
X138390645Y-89150000D03*
%TD*%
D14*
%TO.C,R511*%
X139940645Y-92225000D03*
X139940645Y-90575000D03*
%TD*%
D15*
%TO.C,C402*%
X152190645Y-98850000D03*
X152190645Y-97300000D03*
%TD*%
D14*
%TO.C,R508*%
X126440645Y-91225000D03*
X126440645Y-89575000D03*
%TD*%
%TO.C,R510*%
X140690645Y-98800000D03*
X140690645Y-97150000D03*
%TD*%
D12*
%TO.C,C303*%
X146190645Y-83650000D03*
X147740645Y-83650000D03*
%TD*%
D16*
%TO.C,D701*%
X154190645Y-78900000D03*
X154190645Y-81000000D03*
%TD*%
D13*
%TO.C,C501*%
X128190645Y-96100000D03*
X126640645Y-96100000D03*
%TD*%
D14*
%TO.C,R602*%
X158190645Y-97550000D03*
X158190645Y-95900000D03*
%TD*%
D15*
%TO.C,C401*%
X143190645Y-98850000D03*
X143190645Y-97300000D03*
%TD*%
D11*
%TO.C,R306*%
X149515645Y-88150000D03*
X147865645Y-88150000D03*
%TD*%
D17*
%TO.C,R304*%
X147865645Y-85150000D03*
X149515645Y-85150000D03*
%TD*%
D11*
%TO.C,R303*%
X144515645Y-83650000D03*
X142865645Y-83650000D03*
%TD*%
D17*
%TO.C,R305*%
X147865645Y-86650000D03*
X149515645Y-86650000D03*
%TD*%
D15*
%TO.C,C503*%
X140690645Y-95650000D03*
X140690645Y-94100000D03*
%TD*%
D18*
%TO.C,Q501*%
X141753145Y-90450000D03*
X141753145Y-92350000D03*
X143628146Y-91400000D03*
%TD*%
D14*
%TO.C,R705*%
X153190645Y-70975000D03*
X153190645Y-69325000D03*
%TD*%
D18*
%TO.C,Q301*%
X132065645Y-82700000D03*
X132065645Y-84600000D03*
X133940646Y-83650000D03*
%TD*%
D19*
%TO.C,Q802*%
X158065646Y-104160660D03*
X158065646Y-102260660D03*
X156190645Y-103210660D03*
%TD*%
D12*
%TO.C,C502*%
X137175645Y-97285000D03*
X138725645Y-97285000D03*
%TD*%
D19*
%TO.C,Q701*%
X159565646Y-81950000D03*
X159565646Y-80050000D03*
X157690645Y-81000000D03*
%TD*%
D14*
%TO.C,R601*%
X158190645Y-94225000D03*
X158190645Y-92575000D03*
%TD*%
D10*
%TO.C,R202*%
X141190644Y-62032107D03*
X141190644Y-63682107D03*
%TD*%
D14*
%TO.C,R506*%
X128190645Y-94650000D03*
X128190645Y-93000000D03*
%TD*%
D20*
%TO.C,R301*%
X131640645Y-80700000D03*
X134565645Y-80700000D03*
%TD*%
D17*
%TO.C,R801*%
X138428144Y-103149999D03*
X140078144Y-103149999D03*
%TD*%
D14*
%TO.C,R406*%
X153690645Y-97475000D03*
X153690645Y-95825000D03*
%TD*%
D21*
%TO.C,Q201*%
X143690643Y-59785107D03*
D22*
X150548644Y-62071107D03*
D21*
X143690643Y-64357107D03*
%TD*%
D13*
%TO.C,C302*%
X127090645Y-84500000D03*
X125540645Y-84500000D03*
%TD*%
D15*
%TO.C,C403*%
X150690645Y-93425000D03*
X150690645Y-91875000D03*
%TD*%
D23*
%TO.C,U401*%
X145215645Y-94745000D03*
X145215645Y-96015000D03*
X145215645Y-97285000D03*
X145215645Y-98555000D03*
X150165645Y-98555000D03*
X150165645Y-97285000D03*
X150165645Y-96015000D03*
X150165645Y-94745000D03*
%TD*%
D14*
%TO.C,R201*%
X141190644Y-59857107D03*
X141190644Y-58207107D03*
%TD*%
D18*
%TO.C,Q801*%
X134753145Y-102200000D03*
X134753145Y-104100000D03*
X136628146Y-103150000D03*
%TD*%
D14*
%TO.C,R402*%
X140690645Y-85300000D03*
X140690645Y-83650000D03*
%TD*%
D10*
%TO.C,R702*%
X161190645Y-83650000D03*
X161190645Y-85300000D03*
%TD*%
D11*
%TO.C,R401*%
X142340645Y-86900000D03*
X140690645Y-86900000D03*
%TD*%
D23*
%TO.C,U501*%
X130215645Y-94745000D03*
X130215645Y-96015000D03*
X130215645Y-97285000D03*
X130215645Y-98555000D03*
X135165645Y-98555000D03*
X135165645Y-97285000D03*
X135165645Y-96015000D03*
X135165645Y-94745000D03*
%TD*%
D24*
%TO.C,D802*%
X154128146Y-103210661D03*
X152253144Y-103210661D03*
%TD*%
D11*
%TO.C,R501*%
X131865645Y-89650000D03*
X130215645Y-89650000D03*
%TD*%
D25*
%TO.C,D301*%
X129065645Y-81000000D03*
X129065645Y-78900000D03*
%TD*%
D17*
%TO.C,R504*%
X130290645Y-100250000D03*
X131940645Y-100250000D03*
%TD*%
D25*
%TO.C,D502*%
X138940645Y-95900000D03*
X138940645Y-93800000D03*
%TD*%
D26*
%TO.C,R701*%
X146690645Y-67394606D03*
X146690645Y-73319606D03*
%TD*%
D25*
%TO.C,D201*%
X139190644Y-61857107D03*
X139190644Y-59757107D03*
%TD*%
D11*
%TO.C,R603*%
X159690645Y-87150000D03*
X158040645Y-87150000D03*
%TD*%
D24*
%TO.C,D801*%
X143690645Y-103150000D03*
X141815643Y-103150000D03*
%TD*%
D17*
%TO.C,R802*%
X148865646Y-103210661D03*
X150515646Y-103210661D03*
%TD*%
D14*
%TO.C,R404*%
X148940645Y-91725000D03*
X148940645Y-90075000D03*
%TD*%
%TO.C,R507*%
X137190645Y-95900000D03*
X137190645Y-94250000D03*
%TD*%
D21*
%TO.C,Q702*%
X149690645Y-80891607D03*
D22*
X142832644Y-78605607D03*
D21*
X149690645Y-76319607D03*
%TD*%
D14*
%TO.C,R403*%
X146440645Y-91725000D03*
X146440645Y-90075000D03*
%TD*%
D15*
%TO.C,C601*%
X165690645Y-93425000D03*
X165690645Y-91875000D03*
%TD*%
D23*
%TO.C,U601*%
X160215645Y-94745000D03*
X160215645Y-96015000D03*
X160215645Y-97285000D03*
X160215645Y-98555000D03*
X165165645Y-98555000D03*
X165165645Y-97285000D03*
X165165645Y-96015000D03*
X165165645Y-94745000D03*
%TD*%
D14*
%TO.C,R405*%
X152190645Y-95900000D03*
X152190645Y-94250000D03*
%TD*%
D15*
%TO.C,C505*%
X135690645Y-93425000D03*
X135690645Y-91875000D03*
%TD*%
D12*
%TO.C,C301*%
X125540645Y-82900000D03*
X127090645Y-82900000D03*
%TD*%
D27*
%TO.C,U701*%
X151640644Y-69219606D03*
X150690645Y-69219606D03*
X149740646Y-69219606D03*
X149740646Y-71494606D03*
X151640644Y-71494606D03*
%TD*%
D28*
%TO.C,U301*%
X146190645Y-85650000D03*
X144290645Y-85650000D03*
X145240645Y-87525001D03*
%TD*%
D11*
%TO.C,R505*%
X135315645Y-100250000D03*
X133665645Y-100250000D03*
%TD*%
D17*
%TO.C,R509*%
X137465645Y-98900000D03*
X139115645Y-98900000D03*
%TD*%
D11*
%TO.C,R503*%
X135165645Y-89625000D03*
X133515645Y-89625000D03*
%TD*%
D25*
%TO.C,D501*%
X126440645Y-94700000D03*
X126440645Y-92600000D03*
%TD*%
D17*
%TO.C,R703*%
X157865645Y-83650000D03*
X159515645Y-83650000D03*
%TD*%
M02*
