%TF.GenerationSoftware,KiCad,Pcbnew,9.0.7+1*%
%TF.CreationDate,Date%
%TF.ProjectId,Input-Protection,496e7075-742d-4507-926f-74656374696f,1.0.0*%
%TF.SameCoordinates,Original*%
%TF.FileFunction,Copper,L2,Bot*%
%TF.FilePolarity,Positive*%
%FSLAX46Y46*%
G04 Gerber Fmt 4.6, Leading zero omitted, Abs format (unit mm)*
G04 Created by KiCad*
%MOMM*%
%LPD*%
G01*
G04 APERTURE LIST*
G04 Aperture macros list*
%AMRoundRect*
0 Rectangle with rounded corners*
0 $1 Rounding radius*
0 $2 $3 $4 $5 $6 $7 $8 $9 X,Y pos of 4 corners*
0 Add a 4 corners polygon primitive as box body*
4,1,4,$2,$3,$4,$5,$6,$7,$8,$9,$2,$3,0*
0 Add four circle primitives for the rounded corners*
1,1,$1+$1,$2,$3*
1,1,$1+$1,$4,$5*
1,1,$1+$1,$6,$7*
1,1,$1+$1,$8,$9*
0 Add four rect primitives between the rounded corners*
20,1,$1+$1,$2,$3,$4,$5,0*
20,1,$1+$1,$4,$5,$6,$7,0*
20,1,$1+$1,$6,$7,$8,$9,0*
20,1,$1+$1,$8,$9,$2,$3,0*%
G04 Aperture macros list end*
%TA.AperFunction,NonConductor*%
%ADD10C,0.000000*%
%TD*%
%TA.AperFunction,NonConductor*%
%ADD11C,0.165463*%
%TD*%
%ADD12C,0.250000*%
%TA.AperFunction,NonConductor*%
%ADD13C,0.250000*%
%TD*%
%ADD14C,0.300000*%
%TA.AperFunction,NonConductor*%
%ADD15C,0.300000*%
%TD*%
%TA.AperFunction,EtchedComponent*%
%ADD16C,0.200000*%
%TD*%
%TA.AperFunction,ComponentPad*%
%ADD17C,4.500000*%
%TD*%
%TA.AperFunction,ComponentPad*%
%ADD18R,2.000000X4.500000*%
%TD*%
%TA.AperFunction,ComponentPad*%
%ADD19O,2.000000X4.000000*%
%TD*%
%TA.AperFunction,ComponentPad*%
%ADD20O,4.000000X2.000000*%
%TD*%
%TA.AperFunction,ComponentPad*%
%ADD21RoundRect,0.250000X0.750000X0.750000X-0.750000X0.750000X-0.750000X-0.750000X0.750000X-0.750000X0*%
%TD*%
%TA.AperFunction,ComponentPad*%
%ADD22C,2.000000*%
%TD*%
%TA.AperFunction,ViaPad*%
%ADD23C,0.600000*%
%TD*%
%TA.AperFunction,ViaPad*%
%ADD24C,0.800000*%
%TD*%
%TA.AperFunction,Conductor*%
%ADD25C,0.200000*%
%TD*%
%TA.AperFunction,Conductor*%
%ADD26C,0.300000*%
%TD*%
G04 APERTURE END LIST*
D10*
%TA.AperFunction,NonConductor*%
G36*
X171137632Y-82089309D02*
G01*
X171159370Y-82090071D01*
X171180741Y-82091345D01*
X171201744Y-82093131D01*
X171222376Y-82095433D01*
X171242634Y-82098253D01*
X171262519Y-82101593D01*
X171282025Y-82105455D01*
X171301151Y-82109840D01*
X171319896Y-82114754D01*
X171338255Y-82120197D01*
X171356229Y-82126170D01*
X171373813Y-82132678D01*
X171391006Y-82139720D01*
X171407806Y-82147301D01*
X171424211Y-82155423D01*
X171439909Y-82163724D01*
X171455172Y-82172420D01*
X171469996Y-82181511D01*
X171484379Y-82190993D01*
X171498319Y-82200862D01*
X171511814Y-82211120D01*
X171524860Y-82221762D01*
X171537458Y-82232785D01*
X171549603Y-82244188D01*
X171561293Y-82255969D01*
X171572527Y-82268125D01*
X171583302Y-82280655D01*
X171593615Y-82293555D01*
X171603465Y-82306823D01*
X171612850Y-82320458D01*
X171621766Y-82334457D01*
X171630176Y-82349035D01*
X171638044Y-82363833D01*
X171645369Y-82378852D01*
X171652151Y-82394095D01*
X171658392Y-82409564D01*
X171664090Y-82425262D01*
X171669244Y-82441191D01*
X171673856Y-82457351D01*
X171677926Y-82473747D01*
X171681453Y-82490380D01*
X171684437Y-82507253D01*
X171686879Y-82524368D01*
X171688778Y-82541727D01*
X171690134Y-82559333D01*
X171690948Y-82577187D01*
X171691220Y-82595292D01*
X171690785Y-82618227D01*
X171690244Y-82629530D01*
X171689483Y-82640726D01*
X171688508Y-82651813D01*
X171687312Y-82662792D01*
X171685902Y-82673662D01*
X171684274Y-82684424D01*
X171682429Y-82695077D01*
X171680367Y-82705621D01*
X171678087Y-82716057D01*
X171675592Y-82726386D01*
X171672879Y-82736604D01*
X171669949Y-82746715D01*
X171666802Y-82756717D01*
X171663438Y-82766610D01*
X171659875Y-82776377D01*
X171656131Y-82785999D01*
X171652207Y-82795477D01*
X171648100Y-82804809D01*
X171643814Y-82813998D01*
X171639346Y-82823041D01*
X171634698Y-82831940D01*
X171629869Y-82840694D01*
X171624859Y-82849303D01*
X171619669Y-82857767D01*
X171614296Y-82866087D01*
X171608744Y-82874262D01*
X171603010Y-82882293D01*
X171597095Y-82890179D01*
X171591000Y-82897920D01*
X171584725Y-82905516D01*
X171578286Y-82913223D01*
X171571701Y-82920715D01*
X171564974Y-82928000D01*
X171558101Y-82935082D01*
X171551083Y-82941964D01*
X171543921Y-82948653D01*
X171536614Y-82955150D01*
X171529162Y-82961464D01*
X171521565Y-82967596D01*
X171513824Y-82973552D01*
X171505937Y-82979336D01*
X171497908Y-82984953D01*
X171489733Y-82990407D01*
X171481413Y-82995702D01*
X171472948Y-83000843D01*
X171464340Y-83005837D01*
X171455603Y-83010665D01*
X171446760Y-83015308D01*
X171437806Y-83019761D01*
X171428744Y-83024020D01*
X171419574Y-83028080D01*
X171410296Y-83031936D01*
X171400909Y-83035585D01*
X171391413Y-83039020D01*
X171381809Y-83042239D01*
X171372097Y-83045236D01*
X171362276Y-83048007D01*
X171352346Y-83050548D01*
X171342308Y-83052853D01*
X171332161Y-83054918D01*
X171321906Y-83056740D01*
X171311543Y-83058312D01*
X171311542Y-82885452D01*
X171318416Y-82883951D01*
X171325149Y-82882341D01*
X171331748Y-82880623D01*
X171338215Y-82878796D01*
X171344555Y-82876861D01*
X171350773Y-82874817D01*
X171356873Y-82872665D01*
X171362861Y-82870404D01*
X171368740Y-82868034D01*
X171374514Y-82865557D01*
X171380190Y-82862970D01*
X171385771Y-82860276D01*
X171391261Y-82857473D01*
X171396665Y-82854560D01*
X171401988Y-82851539D01*
X171407234Y-82848411D01*
X171412389Y-82844901D01*
X171417434Y-82841318D01*
X171422371Y-82837656D01*
X171427201Y-82833917D01*
X171431922Y-82830095D01*
X171436534Y-82826192D01*
X171441037Y-82822201D01*
X171445432Y-82818121D01*
X171449719Y-82813953D01*
X171453896Y-82809689D01*
X171457967Y-82805332D01*
X171461927Y-82800878D01*
X171465780Y-82796323D01*
X171469524Y-82791669D01*
X171473159Y-82786909D01*
X171476686Y-82782044D01*
X171480105Y-82777360D01*
X171483418Y-82772569D01*
X171486626Y-82767675D01*
X171489733Y-82762679D01*
X171492740Y-82757583D01*
X171495651Y-82752391D01*
X171498465Y-82747103D01*
X171501188Y-82741722D01*
X171506364Y-82730692D01*
X171511196Y-82719319D01*
X171515703Y-82707619D01*
X171519902Y-82695613D01*
X171523158Y-82683899D01*
X171525979Y-82671932D01*
X171528366Y-82659747D01*
X171530320Y-82647381D01*
X171531840Y-82634872D01*
X171532924Y-82622253D01*
X171533575Y-82609563D01*
X171533792Y-82596836D01*
X171533611Y-82584771D01*
X171533066Y-82572886D01*
X171532154Y-82561176D01*
X171530874Y-82549641D01*
X171529224Y-82538278D01*
X171527199Y-82527084D01*
X171524802Y-82516058D01*
X171522024Y-82505196D01*
X171518868Y-82494497D01*
X171515328Y-82483959D01*
X171511406Y-82473579D01*
X171507096Y-82463356D01*
X171502398Y-82453285D01*
X171497308Y-82443366D01*
X171491824Y-82433597D01*
X171485947Y-82423975D01*
X171479960Y-82414551D01*
X171473578Y-82405381D01*
X171466803Y-82396464D01*
X171459637Y-82387800D01*
X171452082Y-82379391D01*
X171444139Y-82371234D01*
X171435814Y-82363330D01*
X171427105Y-82355679D01*
X171418016Y-82348281D01*
X171408551Y-82341138D01*
X171398710Y-82334246D01*
X171388496Y-82327608D01*
X171377911Y-82321224D01*
X171366958Y-82315092D01*
X171355639Y-82309214D01*
X171343954Y-82303589D01*
X171332198Y-82298271D01*
X171320086Y-82293313D01*
X171307620Y-82288711D01*
X171294807Y-82284465D01*
X171281649Y-82280573D01*
X171268153Y-82277029D01*
X171254321Y-82273834D01*
X171240159Y-82270985D01*
X171225674Y-82268479D01*
X171210866Y-82266315D01*
X171195742Y-82264490D01*
X171180305Y-82263002D01*
X171164560Y-82261849D01*
X171148515Y-82261028D01*
X171132170Y-82260537D01*
X171115530Y-82260374D01*
X171098637Y-82260538D01*
X171082100Y-82261028D01*
X171065918Y-82261849D01*
X171050081Y-82263002D01*
X171034589Y-82264490D01*
X171019437Y-82266315D01*
X171004618Y-82268479D01*
X170990129Y-82270985D01*
X170975967Y-82273834D01*
X170962126Y-82277029D01*
X170948600Y-82280572D01*
X170935387Y-82284465D01*
X170922481Y-82288711D01*
X170909878Y-82293313D01*
X170897574Y-82298272D01*
X170885565Y-82303589D01*
X170874153Y-82309214D01*
X170863067Y-82315093D01*
X170852313Y-82321224D01*
X170841891Y-82327608D01*
X170831803Y-82334245D01*
X170822051Y-82341137D01*
X170812641Y-82348281D01*
X170803571Y-82355679D01*
X170794844Y-82363330D01*
X170786464Y-82371233D01*
X170778431Y-82379391D01*
X170770750Y-82387802D01*
X170763420Y-82396464D01*
X170756446Y-82405381D01*
X170749829Y-82414550D01*
X170743570Y-82423974D01*
X170737675Y-82433597D01*
X170732143Y-82443366D01*
X170726977Y-82453285D01*
X170722181Y-82463355D01*
X170717754Y-82473579D01*
X170713701Y-82483959D01*
X170710024Y-82494497D01*
X170706723Y-82505196D01*
X170703802Y-82516058D01*
X170701263Y-82527084D01*
X170699109Y-82538278D01*
X170697343Y-82549641D01*
X170695963Y-82561176D01*
X170694975Y-82572885D01*
X170694381Y-82584770D01*
X170694182Y-82596836D01*
X170694399Y-82610009D01*
X170695051Y-82622929D01*
X170696136Y-82635631D01*
X170697654Y-82648153D01*
X170699608Y-82660531D01*
X170701996Y-82672800D01*
X170704817Y-82684996D01*
X170708073Y-82697157D01*
X170712272Y-82708654D01*
X170716779Y-82719970D01*
X170721610Y-82731069D01*
X170724155Y-82736526D01*
X170726787Y-82741914D01*
X170729509Y-82747232D01*
X170732324Y-82752472D01*
X170735234Y-82757631D01*
X170738242Y-82762703D01*
X170741348Y-82767685D01*
X170744558Y-82772572D01*
X170747869Y-82777360D01*
X170751288Y-82782044D01*
X170755085Y-82786909D01*
X170758957Y-82791669D01*
X170762900Y-82796324D01*
X170766916Y-82800878D01*
X170771002Y-82805332D01*
X170775163Y-82809689D01*
X170779395Y-82813952D01*
X170783699Y-82818121D01*
X170788075Y-82822200D01*
X170792526Y-82826191D01*
X170797047Y-82830095D01*
X170801642Y-82833917D01*
X170806308Y-82837656D01*
X170811047Y-82841317D01*
X170815858Y-82844900D01*
X170820741Y-82848410D01*
X170826004Y-82851539D01*
X170831373Y-82854560D01*
X170836846Y-82857472D01*
X170842419Y-82860275D01*
X170848095Y-82862970D01*
X170853868Y-82865557D01*
X170865692Y-82870404D01*
X170877880Y-82874816D01*
X170890412Y-82878796D01*
X170903268Y-82882342D01*
X170916432Y-82885452D01*
X170916432Y-83058312D01*
X170905236Y-83056469D01*
X170894219Y-83054406D01*
X170883377Y-83052127D01*
X170872711Y-83049631D01*
X170862214Y-83046918D01*
X170851889Y-83043988D01*
X170841731Y-83040841D01*
X170831738Y-83037477D01*
X170821906Y-83033895D01*
X170812237Y-83030097D01*
X170802726Y-83026082D01*
X170793370Y-83021850D01*
X170784168Y-83017400D01*
X170775117Y-83012734D01*
X170766216Y-83007849D01*
X170757462Y-83002750D01*
X170748598Y-82997740D01*
X170739946Y-82992549D01*
X170731495Y-82987177D01*
X170723243Y-82981625D01*
X170715178Y-82975891D01*
X170707298Y-82969977D01*
X170699595Y-82963882D01*
X170692061Y-82957606D01*
X170684689Y-82951150D01*
X170677473Y-82944511D01*
X170670407Y-82937692D01*
X170663483Y-82930693D01*
X170656695Y-82923511D01*
X170650036Y-82916151D01*
X170643499Y-82908608D01*
X170637077Y-82900885D01*
X170631090Y-82893289D01*
X170625284Y-82885548D01*
X170619657Y-82877662D01*
X170614215Y-82869631D01*
X170608952Y-82861456D01*
X170603869Y-82853136D01*
X170598968Y-82844672D01*
X170594248Y-82836062D01*
X170589708Y-82827310D01*
X170585349Y-82818410D01*
X170581170Y-82809366D01*
X170577173Y-82800179D01*
X170573358Y-82790846D01*
X170569722Y-82781368D01*
X170566268Y-82771746D01*
X170562993Y-82761979D01*
X170557058Y-82742155D01*
X170551973Y-82722044D01*
X170547719Y-82701642D01*
X170544279Y-82680951D01*
X170541636Y-82659970D01*
X170539770Y-82638699D01*
X170538663Y-82617141D01*
X170538299Y-82595292D01*
X170538570Y-82577187D01*
X170539384Y-82559337D01*
X170540740Y-82541737D01*
X170542639Y-82524392D01*
X170545081Y-82507300D01*
X170548066Y-82490461D01*
X170551592Y-82473876D01*
X170555662Y-82457544D01*
X170560274Y-82441464D01*
X170565429Y-82425638D01*
X170571126Y-82410066D01*
X170577365Y-82394746D01*
X170584150Y-82379680D01*
X170591475Y-82364867D01*
X170599342Y-82350308D01*
X170607752Y-82336000D01*
X170616651Y-82321730D01*
X170625990Y-82307857D01*
X170635771Y-82294384D01*
X170645999Y-82281306D01*
X170656680Y-82268627D01*
X170667818Y-82256346D01*
X170679417Y-82244463D01*
X170691481Y-82232978D01*
X170704016Y-82221890D01*
X170717026Y-82211202D01*
X170730514Y-82200910D01*
X170744488Y-82191017D01*
X170758949Y-82181522D01*
X170773904Y-82172424D01*
X170789353Y-82163724D01*
X170805306Y-82155422D01*
X170821712Y-82147301D01*
X170838514Y-82139720D01*
X170855715Y-82132677D01*
X170873314Y-82126170D01*
X170891310Y-82120197D01*
X170909704Y-82114754D01*
X170928497Y-82109841D01*
X170947686Y-82105456D01*
X170967274Y-82101592D01*
X170987260Y-82098253D01*
X171007643Y-82095433D01*
X171028425Y-82093131D01*
X171049605Y-82091345D01*
X171071182Y-82090072D01*
X171093157Y-82089309D01*
X171115531Y-82089056D01*
X171137632Y-82089309D01*
G37*
%TD.AperFunction*%
%TA.AperFunction,NonConductor*%
G36*
X171675785Y-77945961D02*
G01*
X171675785Y-78120366D01*
X171076946Y-78120366D01*
X171059293Y-78120101D01*
X171038747Y-78119400D01*
X170988972Y-78117279D01*
X170928972Y-78114771D01*
X170895860Y-78113155D01*
X170860869Y-78111106D01*
X170761644Y-78107137D01*
X170792381Y-78123646D01*
X170830459Y-78143782D01*
X170865500Y-78162037D01*
X170926078Y-78196185D01*
X170953618Y-78211740D01*
X170979712Y-78226861D01*
X171004044Y-78241017D01*
X171028522Y-78255607D01*
X171078489Y-78285510D01*
X171675784Y-78665187D01*
X171675785Y-78864286D01*
X170552188Y-78864286D01*
X170552188Y-78689881D01*
X171191157Y-78689881D01*
X171211728Y-78689905D01*
X171234179Y-78690074D01*
X171258657Y-78690533D01*
X171285304Y-78691425D01*
X171341639Y-78693739D01*
X171402603Y-78696054D01*
X171465884Y-78700878D01*
X171470828Y-78701310D01*
X171464339Y-78698369D01*
X171433664Y-78683949D01*
X171404147Y-78669817D01*
X171376052Y-78655034D01*
X171349549Y-78640685D01*
X171324493Y-78626626D01*
X171312462Y-78619660D01*
X171300739Y-78612711D01*
X171278432Y-78600268D01*
X171257716Y-78588402D01*
X171238448Y-78577118D01*
X171220482Y-78566409D01*
X170552190Y-78143517D01*
X170552189Y-77945960D01*
X171675785Y-77945961D01*
G37*
%TD.AperFunction*%
%TA.AperFunction,NonConductor*%
G36*
X171675785Y-79235259D02*
G01*
X171379452Y-79336232D01*
X171379452Y-79778045D01*
X171675785Y-79881945D01*
X171675785Y-80067153D01*
X170552189Y-79661237D01*
X170552190Y-79554165D01*
X170688916Y-79554165D01*
X170693917Y-79555563D01*
X170758041Y-79574036D01*
X170871673Y-79607219D01*
X170921786Y-79621978D01*
X170968136Y-79636158D01*
X171011014Y-79649759D01*
X171050708Y-79662781D01*
X171235917Y-79727719D01*
X171235916Y-79385141D01*
X171050708Y-79448248D01*
X171012798Y-79460378D01*
X170970837Y-79473520D01*
X170924825Y-79487532D01*
X170874760Y-79502267D01*
X170760163Y-79534680D01*
X170688916Y-79554165D01*
X170552190Y-79554165D01*
X170552190Y-79449792D01*
X171235916Y-79206542D01*
X171675785Y-79050050D01*
X171675785Y-79235259D01*
G37*
%TD.AperFunction*%
%TA.AperFunction,NonConductor*%
G36*
X171376644Y-83240293D02*
G01*
X171389050Y-83241463D01*
X171401241Y-83243023D01*
X171413214Y-83244967D01*
X171424971Y-83247289D01*
X171436510Y-83249988D01*
X171447832Y-83253058D01*
X171458937Y-83256494D01*
X171469825Y-83260291D01*
X171480497Y-83264446D01*
X171490950Y-83268953D01*
X171501188Y-83273810D01*
X171511208Y-83279008D01*
X171521011Y-83284548D01*
X171530596Y-83290420D01*
X171539965Y-83296623D01*
X171549099Y-83303424D01*
X171557977Y-83310514D01*
X171566597Y-83317903D01*
X171574958Y-83325585D01*
X171583057Y-83333566D01*
X171590889Y-83341848D01*
X171598456Y-83350433D01*
X171605753Y-83359323D01*
X171612780Y-83368520D01*
X171619531Y-83378028D01*
X171626009Y-83387846D01*
X171632208Y-83397980D01*
X171638127Y-83408431D01*
X171643762Y-83419199D01*
X171649113Y-83430288D01*
X171654178Y-83441702D01*
X171658953Y-83453404D01*
X171663435Y-83465362D01*
X171667624Y-83477578D01*
X171671516Y-83490054D01*
X171675111Y-83502792D01*
X171678404Y-83515794D01*
X171681395Y-83529064D01*
X171684081Y-83542602D01*
X171686459Y-83556413D01*
X171688527Y-83570495D01*
X171690284Y-83584854D01*
X171691726Y-83599491D01*
X171692851Y-83614408D01*
X171693657Y-83629608D01*
X171694144Y-83645094D01*
X171694307Y-83660865D01*
X171694144Y-83677198D01*
X171693655Y-83693211D01*
X171692841Y-83708906D01*
X171691702Y-83724289D01*
X171690237Y-83739366D01*
X171688447Y-83754139D01*
X171686330Y-83768613D01*
X171683889Y-83782794D01*
X171681120Y-83796686D01*
X171678028Y-83810292D01*
X171674608Y-83823618D01*
X171670865Y-83836668D01*
X171666796Y-83849447D01*
X171662401Y-83861960D01*
X171657680Y-83874210D01*
X171652634Y-83886201D01*
X171647027Y-83897598D01*
X171641200Y-83908637D01*
X171635151Y-83919321D01*
X171628880Y-83929660D01*
X171622382Y-83939652D01*
X171615656Y-83949307D01*
X171608699Y-83958627D01*
X171601509Y-83967616D01*
X171594085Y-83976281D01*
X171586422Y-83984624D01*
X171578520Y-83992651D01*
X171570376Y-84000364D01*
X171561989Y-84007773D01*
X171553353Y-84014877D01*
X171544470Y-84021682D01*
X171535336Y-84028195D01*
X171525985Y-84034073D01*
X171516457Y-84039556D01*
X171506751Y-84044646D01*
X171496871Y-84049344D01*
X171486819Y-84053654D01*
X171476599Y-84057577D01*
X171466212Y-84061115D01*
X171455659Y-84064272D01*
X171444942Y-84067049D01*
X171434065Y-84069447D01*
X171423030Y-84071473D01*
X171411839Y-84073123D01*
X171400495Y-84074403D01*
X171389000Y-84075314D01*
X171377354Y-84075860D01*
X171365562Y-84076041D01*
X171356104Y-84075932D01*
X171346823Y-84075604D01*
X171337726Y-84075052D01*
X171328810Y-84074281D01*
X171320074Y-84073281D01*
X171311519Y-84072053D01*
X171303144Y-84070593D01*
X171294952Y-84068902D01*
X171286940Y-84066976D01*
X171279107Y-84064812D01*
X171271456Y-84062408D01*
X171263987Y-84059762D01*
X171256698Y-84056873D01*
X171249591Y-84053736D01*
X171242662Y-84050352D01*
X171235916Y-84046717D01*
X171229060Y-84042881D01*
X171222381Y-84038902D01*
X171215875Y-84034778D01*
X171209534Y-84030511D01*
X171203356Y-84026098D01*
X171197337Y-84021540D01*
X171191472Y-84016836D01*
X171185756Y-84011988D01*
X171180185Y-84006997D01*
X171174753Y-84001860D01*
X171169457Y-83996579D01*
X171164293Y-83991154D01*
X171159255Y-83985582D01*
X171154339Y-83979867D01*
X171149541Y-83974006D01*
X171144855Y-83968002D01*
X171135812Y-83955769D01*
X171127202Y-83943356D01*
X171119027Y-83930727D01*
X171111286Y-83917842D01*
X171103979Y-83904669D01*
X171097107Y-83891170D01*
X171090668Y-83877309D01*
X171084663Y-83863051D01*
X171079086Y-83849163D01*
X171073907Y-83835294D01*
X171069090Y-83821460D01*
X171064599Y-83807681D01*
X171060397Y-83793975D01*
X171056447Y-83780358D01*
X171049165Y-83753470D01*
X171019841Y-83643888D01*
X171013715Y-83622521D01*
X171010345Y-83611495D01*
X171006722Y-83600287D01*
X171002808Y-83588934D01*
X170998570Y-83577473D01*
X170993970Y-83565940D01*
X170988972Y-83554370D01*
X170986603Y-83548366D01*
X170984125Y-83542503D01*
X170981538Y-83536780D01*
X170978843Y-83531195D01*
X170976040Y-83525746D01*
X170973128Y-83520431D01*
X170970108Y-83515246D01*
X170966978Y-83510190D01*
X170963741Y-83505262D01*
X170960396Y-83500457D01*
X170956940Y-83495775D01*
X170953377Y-83491212D01*
X170949706Y-83486767D01*
X170945925Y-83482438D01*
X170942038Y-83478220D01*
X170938040Y-83474114D01*
X170933644Y-83470189D01*
X170929135Y-83466517D01*
X170924507Y-83463099D01*
X170919759Y-83459934D01*
X170914885Y-83457022D01*
X170909879Y-83454363D01*
X170904737Y-83451957D01*
X170899455Y-83449805D01*
X170894028Y-83447906D01*
X170888452Y-83446260D01*
X170882722Y-83444866D01*
X170876835Y-83443728D01*
X170870784Y-83442841D01*
X170864565Y-83442208D01*
X170858175Y-83441828D01*
X170851609Y-83441702D01*
X170845587Y-83441810D01*
X170839669Y-83442136D01*
X170833856Y-83442678D01*
X170828145Y-83443438D01*
X170822534Y-83444415D01*
X170817018Y-83445609D01*
X170811599Y-83447020D01*
X170806272Y-83448647D01*
X170801035Y-83450491D01*
X170795885Y-83452554D01*
X170790825Y-83454832D01*
X170785846Y-83457330D01*
X170780949Y-83460042D01*
X170776131Y-83462972D01*
X170771388Y-83466119D01*
X170766722Y-83469483D01*
X170762147Y-83472775D01*
X170757682Y-83476282D01*
X170753330Y-83480000D01*
X170749094Y-83483929D01*
X170744975Y-83488066D01*
X170740975Y-83492408D01*
X170737099Y-83496955D01*
X170733346Y-83501702D01*
X170729720Y-83506648D01*
X170726223Y-83511791D01*
X170722858Y-83517129D01*
X170719624Y-83522658D01*
X170716527Y-83528378D01*
X170713569Y-83534285D01*
X170710748Y-83540378D01*
X170708074Y-83546653D01*
X170705541Y-83552820D01*
X170703155Y-83559163D01*
X170700921Y-83565678D01*
X170698837Y-83572361D01*
X170696906Y-83579207D01*
X170695132Y-83586209D01*
X170693516Y-83593366D01*
X170692061Y-83600673D01*
X170690769Y-83608124D01*
X170689640Y-83615714D01*
X170688679Y-83623441D01*
X170687888Y-83631299D01*
X170687269Y-83639284D01*
X170686824Y-83647390D01*
X170686556Y-83655614D01*
X170686466Y-83663951D01*
X170686629Y-83675707D01*
X170687120Y-83687241D01*
X170687941Y-83698549D01*
X170689093Y-83709627D01*
X170690582Y-83720469D01*
X170692407Y-83731072D01*
X170694571Y-83741431D01*
X170697077Y-83751540D01*
X170699926Y-83761398D01*
X170703120Y-83770997D01*
X170706664Y-83780332D01*
X170710557Y-83789401D01*
X170714803Y-83798200D01*
X170719406Y-83806723D01*
X170724363Y-83814964D01*
X170729681Y-83822923D01*
X170735034Y-83830520D01*
X170740674Y-83837684D01*
X170746600Y-83844420D01*
X170752807Y-83850728D01*
X170759296Y-83856611D01*
X170766062Y-83862071D01*
X170773103Y-83867111D01*
X170780420Y-83871733D01*
X170788007Y-83875938D01*
X170795862Y-83879730D01*
X170803986Y-83883110D01*
X170812372Y-83886081D01*
X170821023Y-83888645D01*
X170829932Y-83890805D01*
X170839100Y-83892562D01*
X170848522Y-83893919D01*
X170848523Y-84062149D01*
X170837325Y-84061662D01*
X170826306Y-84060778D01*
X170815457Y-84059501D01*
X170804777Y-84057833D01*
X170794258Y-84055776D01*
X170783899Y-84053333D01*
X170773692Y-84050504D01*
X170763635Y-84047294D01*
X170753724Y-84043705D01*
X170743951Y-84039737D01*
X170734315Y-84035395D01*
X170724809Y-84030679D01*
X170715430Y-84025592D01*
X170706174Y-84020136D01*
X170697035Y-84014316D01*
X170688009Y-84008131D01*
X170679436Y-84001891D01*
X170671083Y-83995329D01*
X170662951Y-83988446D01*
X170655043Y-83981242D01*
X170647361Y-83973723D01*
X170639907Y-83965890D01*
X170632685Y-83957744D01*
X170625694Y-83949289D01*
X170618939Y-83940525D01*
X170612421Y-83931457D01*
X170606143Y-83922088D01*
X170600108Y-83912416D01*
X170594315Y-83902446D01*
X170588770Y-83892180D01*
X170583473Y-83881619D01*
X170578428Y-83870768D01*
X170573397Y-83859663D01*
X170568727Y-83848344D01*
X170564408Y-83836811D01*
X170560437Y-83825069D01*
X170556810Y-83813117D01*
X170553522Y-83800962D01*
X170550568Y-83788603D01*
X170547944Y-83776042D01*
X170545647Y-83763282D01*
X170543671Y-83750326D01*
X170542009Y-83737175D01*
X170540663Y-83723832D01*
X170539621Y-83710299D01*
X170538883Y-83696578D01*
X170538444Y-83682673D01*
X170538299Y-83668582D01*
X170538444Y-83654493D01*
X170538883Y-83640584D01*
X170539621Y-83626856D01*
X170540662Y-83613309D01*
X170542010Y-83599943D01*
X170543671Y-83586758D01*
X170545647Y-83573754D01*
X170547945Y-83560930D01*
X170550568Y-83548287D01*
X170553523Y-83535825D01*
X170556810Y-83523545D01*
X170560438Y-83511444D01*
X170564409Y-83499525D01*
X170568727Y-83487786D01*
X170573398Y-83476228D01*
X170578427Y-83464853D01*
X170583490Y-83453712D01*
X170588839Y-83442864D01*
X170594468Y-83432307D01*
X170600371Y-83422049D01*
X170606548Y-83412087D01*
X170612991Y-83402427D01*
X170619696Y-83393070D01*
X170626659Y-83384018D01*
X170633876Y-83375273D01*
X170641339Y-83366838D01*
X170649048Y-83358715D01*
X170656996Y-83350907D01*
X170665180Y-83343414D01*
X170673593Y-83336241D01*
X170682234Y-83329390D01*
X170691096Y-83322859D01*
X170700175Y-83316420D01*
X170709469Y-83310413D01*
X170718975Y-83304835D01*
X170728692Y-83299684D01*
X170738617Y-83294960D01*
X170748747Y-83290657D01*
X170759081Y-83286774D01*
X170769616Y-83283309D01*
X170780350Y-83280262D01*
X170791281Y-83277628D01*
X170802406Y-83275405D01*
X170813723Y-83273592D01*
X170825230Y-83272185D01*
X170836926Y-83271182D01*
X170848806Y-83270583D01*
X170860869Y-83270384D01*
X170875159Y-83270675D01*
X170889091Y-83271548D01*
X170902670Y-83273010D01*
X170915901Y-83275063D01*
X170928789Y-83277713D01*
X170941337Y-83280965D01*
X170953551Y-83284823D01*
X170965435Y-83289292D01*
X170976992Y-83294374D01*
X170988231Y-83300077D01*
X170999151Y-83306403D01*
X171009761Y-83313359D01*
X171020061Y-83320947D01*
X171030059Y-83329172D01*
X171039759Y-83338041D01*
X171049165Y-83347554D01*
X171058009Y-83357357D01*
X171066597Y-83367661D01*
X171074928Y-83378463D01*
X171082999Y-83389757D01*
X171090807Y-83401540D01*
X171098351Y-83413807D01*
X171105629Y-83426552D01*
X171112637Y-83439773D01*
X171119374Y-83453465D01*
X171125837Y-83467619D01*
X171132025Y-83482237D01*
X171137934Y-83497313D01*
X171143563Y-83512840D01*
X171148909Y-83528814D01*
X171153972Y-83545231D01*
X171158746Y-83562088D01*
X171194244Y-83693276D01*
X171198369Y-83708619D01*
X171202636Y-83723421D01*
X171207050Y-83737715D01*
X171211607Y-83751541D01*
X171216310Y-83764931D01*
X171221157Y-83777923D01*
X171226149Y-83790553D01*
X171231286Y-83802858D01*
X171233926Y-83808844D01*
X171236639Y-83814654D01*
X171239425Y-83820286D01*
X171242282Y-83825744D01*
X171245212Y-83831030D01*
X171248215Y-83836147D01*
X171251289Y-83841096D01*
X171254436Y-83845880D01*
X171257656Y-83850502D01*
X171260948Y-83854963D01*
X171264313Y-83859266D01*
X171267748Y-83863414D01*
X171271257Y-83867406D01*
X171274839Y-83871247D01*
X171278492Y-83874939D01*
X171282218Y-83878485D01*
X171286324Y-83881849D01*
X171290544Y-83884996D01*
X171294882Y-83887926D01*
X171299340Y-83890639D01*
X171303926Y-83893135D01*
X171308642Y-83895414D01*
X171313495Y-83897476D01*
X171318488Y-83899321D01*
X171323625Y-83900950D01*
X171328912Y-83902359D01*
X171334352Y-83903553D01*
X171339951Y-83904530D01*
X171345712Y-83905290D01*
X171351641Y-83905833D01*
X171357741Y-83906158D01*
X171364017Y-83906266D01*
X171370620Y-83906140D01*
X171377115Y-83905760D01*
X171383507Y-83905127D01*
X171389799Y-83904241D01*
X171395989Y-83903101D01*
X171402082Y-83901708D01*
X171408080Y-83900062D01*
X171413986Y-83898164D01*
X171419800Y-83896011D01*
X171425528Y-83893605D01*
X171431169Y-83890947D01*
X171436727Y-83888035D01*
X171442203Y-83884870D01*
X171447600Y-83881451D01*
X171452920Y-83877780D01*
X171458165Y-83873855D01*
X171463286Y-83869984D01*
X171468228Y-83865897D01*
X171472998Y-83861592D01*
X171477602Y-83857071D01*
X171482044Y-83852332D01*
X171486326Y-83847376D01*
X171490455Y-83842203D01*
X171494435Y-83836814D01*
X171498269Y-83831206D01*
X171501965Y-83825382D01*
X171505525Y-83819341D01*
X171508952Y-83813083D01*
X171512255Y-83806608D01*
X171515434Y-83799917D01*
X171518497Y-83793007D01*
X171521445Y-83785881D01*
X171524247Y-83778881D01*
X171526871Y-83771770D01*
X171529312Y-83764546D01*
X171531573Y-83757207D01*
X171533653Y-83749752D01*
X171535552Y-83742174D01*
X171537269Y-83734476D01*
X171538808Y-83726653D01*
X171540164Y-83718704D01*
X171541340Y-83710625D01*
X171542335Y-83702416D01*
X171543149Y-83694073D01*
X171543782Y-83685594D01*
X171544234Y-83676978D01*
X171544505Y-83668221D01*
X171544597Y-83659322D01*
X171544303Y-83643327D01*
X171543934Y-83635480D01*
X171543414Y-83627730D01*
X171542740Y-83620070D01*
X171541910Y-83612494D01*
X171540921Y-83605002D01*
X171539772Y-83597587D01*
X171538461Y-83590243D01*
X171536985Y-83582965D01*
X171535340Y-83575752D01*
X171533527Y-83568598D01*
X171531541Y-83561499D01*
X171529381Y-83554448D01*
X171527046Y-83547444D01*
X171524532Y-83540480D01*
X171522126Y-83533624D01*
X171519540Y-83526949D01*
X171516773Y-83520447D01*
X171513824Y-83514121D01*
X171510695Y-83507967D01*
X171507386Y-83501982D01*
X171503895Y-83496165D01*
X171500223Y-83490512D01*
X171496372Y-83485022D01*
X171492337Y-83479693D01*
X171488123Y-83474522D01*
X171483728Y-83469507D01*
X171479152Y-83464646D01*
X171474395Y-83459936D01*
X171469458Y-83455375D01*
X171464339Y-83450961D01*
X171459328Y-83446747D01*
X171454141Y-83442782D01*
X171448777Y-83439059D01*
X171443238Y-83435577D01*
X171437527Y-83432329D01*
X171431648Y-83429313D01*
X171425600Y-83426522D01*
X171419388Y-83423953D01*
X171413013Y-83421600D01*
X171406477Y-83419461D01*
X171399783Y-83417529D01*
X171392933Y-83415802D01*
X171385929Y-83414273D01*
X171378774Y-83412938D01*
X171371470Y-83411794D01*
X171364018Y-83410834D01*
X171364018Y-83239516D01*
X171376644Y-83240293D01*
G37*
%TD.AperFunction*%
%TA.AperFunction,NonConductor*%
G36*
X171675785Y-75854122D02*
G01*
X171675785Y-76131934D01*
X171675515Y-76153150D01*
X171674703Y-76173968D01*
X171673354Y-76194388D01*
X171671469Y-76214409D01*
X171669049Y-76234034D01*
X171666100Y-76253260D01*
X171662621Y-76272087D01*
X171658614Y-76290519D01*
X171654084Y-76308551D01*
X171649032Y-76326186D01*
X171643459Y-76343422D01*
X171637370Y-76360261D01*
X171630763Y-76376702D01*
X171623644Y-76392745D01*
X171616013Y-76408390D01*
X171607876Y-76423637D01*
X171599248Y-76438468D01*
X171590153Y-76452866D01*
X171580593Y-76466828D01*
X171570568Y-76480357D01*
X171560083Y-76493452D01*
X171549139Y-76506112D01*
X171537737Y-76518339D01*
X171525882Y-76530132D01*
X171513574Y-76541489D01*
X171500817Y-76552415D01*
X171487611Y-76562905D01*
X171473961Y-76572961D01*
X171459867Y-76582583D01*
X171445333Y-76591771D01*
X171430360Y-76600525D01*
X171414950Y-76608845D01*
X171398852Y-76616422D01*
X171382390Y-76623529D01*
X171365563Y-76630159D01*
X171348367Y-76636312D01*
X171330800Y-76641987D01*
X171312860Y-76647180D01*
X171294544Y-76651889D01*
X171275851Y-76656112D01*
X171256778Y-76659847D01*
X171237324Y-76663091D01*
X171217484Y-76665841D01*
X171197258Y-76668099D01*
X171176644Y-76669855D01*
X171155638Y-76671115D01*
X171134239Y-76671872D01*
X171112444Y-76672126D01*
X171090922Y-76671872D01*
X171069762Y-76671116D01*
X171048970Y-76669856D01*
X171028546Y-76668098D01*
X171008492Y-76665843D01*
X170988812Y-76663092D01*
X170969507Y-76659847D01*
X170950580Y-76656111D01*
X170932032Y-76651889D01*
X170913868Y-76647180D01*
X170896085Y-76641987D01*
X170878691Y-76636313D01*
X170861686Y-76630159D01*
X170845071Y-76623529D01*
X170828850Y-76616423D01*
X170813024Y-76608845D01*
X170797615Y-76600543D01*
X170782642Y-76591841D01*
X170768107Y-76582736D01*
X170754013Y-76573225D01*
X170740363Y-76563310D01*
X170727158Y-76552984D01*
X170714399Y-76542247D01*
X170702092Y-76531096D01*
X170690237Y-76519530D01*
X170678836Y-76507544D01*
X170667892Y-76495139D01*
X170657406Y-76482310D01*
X170647382Y-76469056D01*
X170637821Y-76455377D01*
X170628726Y-76441266D01*
X170620099Y-76426723D01*
X170611961Y-76411784D01*
X170604331Y-76396480D01*
X170597212Y-76380809D01*
X170590606Y-76364771D01*
X170584516Y-76348360D01*
X170578943Y-76331578D01*
X170573890Y-76314420D01*
X170569361Y-76296885D01*
X170565354Y-76278970D01*
X170561875Y-76260670D01*
X170558926Y-76241991D01*
X170556506Y-76222923D01*
X170554622Y-76203465D01*
X170553272Y-76183617D01*
X170552460Y-76163376D01*
X170552188Y-76142738D01*
X170552189Y-75939009D01*
X170703443Y-75939009D01*
X170703444Y-76131934D01*
X170703624Y-76147109D01*
X170704169Y-76161961D01*
X170705081Y-76176492D01*
X170706361Y-76190705D01*
X170708012Y-76204599D01*
X170710036Y-76218181D01*
X170712435Y-76231450D01*
X170715211Y-76244408D01*
X170718368Y-76257062D01*
X170721906Y-76269407D01*
X170725829Y-76281452D01*
X170730139Y-76293195D01*
X170734837Y-76304640D01*
X170739927Y-76315789D01*
X170745410Y-76326644D01*
X170751288Y-76337207D01*
X170757257Y-76347191D01*
X170763587Y-76356882D01*
X170770279Y-76366280D01*
X170777333Y-76375382D01*
X170784749Y-76384185D01*
X170792525Y-76392688D01*
X170800665Y-76400885D01*
X170809166Y-76408782D01*
X170818028Y-76416369D01*
X170827252Y-76423646D01*
X170836838Y-76430611D01*
X170846787Y-76437262D01*
X170857095Y-76443597D01*
X170867767Y-76449613D01*
X170878800Y-76455307D01*
X170890194Y-76460679D01*
X170901643Y-76465742D01*
X170913417Y-76470512D01*
X170925518Y-76474983D01*
X170937943Y-76479151D01*
X170950694Y-76483012D01*
X170963771Y-76486561D01*
X170977174Y-76489792D01*
X170990901Y-76492704D01*
X171004955Y-76495290D01*
X171019333Y-76497546D01*
X171034038Y-76499466D01*
X171049068Y-76501046D01*
X171064424Y-76502287D01*
X171080105Y-76503177D01*
X171096112Y-76503715D01*
X171112444Y-76503894D01*
X171129048Y-76503714D01*
X171145295Y-76503177D01*
X171161191Y-76502287D01*
X171176736Y-76501048D01*
X171191940Y-76499466D01*
X171206802Y-76497546D01*
X171221331Y-76495290D01*
X171235531Y-76492704D01*
X171249403Y-76489793D01*
X171262954Y-76486561D01*
X171276191Y-76483012D01*
X171289115Y-76479152D01*
X171301731Y-76474983D01*
X171314044Y-76470511D01*
X171326059Y-76465742D01*
X171337780Y-76460679D01*
X171349175Y-76455307D01*
X171360211Y-76449607D01*
X171370889Y-76443577D01*
X171381213Y-76437215D01*
X171391183Y-76430517D01*
X171400804Y-76423483D01*
X171410076Y-76416110D01*
X171419002Y-76408396D01*
X171427584Y-76400338D01*
X171435826Y-76391934D01*
X171443728Y-76383182D01*
X171451294Y-76374079D01*
X171458523Y-76364624D01*
X171465421Y-76354813D01*
X171471989Y-76344646D01*
X171478230Y-76334120D01*
X171483854Y-76323521D01*
X171489149Y-76312563D01*
X171494108Y-76301248D01*
X171498728Y-76289578D01*
X171503005Y-76277555D01*
X171506932Y-76265182D01*
X171510510Y-76252461D01*
X171513728Y-76239393D01*
X171516585Y-76225983D01*
X171519076Y-76212230D01*
X171521196Y-76198139D01*
X171522940Y-76183711D01*
X171524305Y-76168947D01*
X171525285Y-76153852D01*
X171525877Y-76138427D01*
X171526075Y-76122674D01*
X171526074Y-75939009D01*
X170703443Y-75939009D01*
X170552189Y-75939009D01*
X170552189Y-75767691D01*
X171526075Y-75767690D01*
X171675785Y-75767690D01*
X171675785Y-75854122D01*
G37*
%TD.AperFunction*%
%TA.AperFunction,NonConductor*%
G36*
X171675784Y-80420557D02*
G01*
X171072315Y-80420557D01*
X171052927Y-80420533D01*
X171031800Y-80420364D01*
X171008941Y-80419906D01*
X170984341Y-80419014D01*
X170880934Y-80417470D01*
X170771352Y-80414384D01*
X170723517Y-80413648D01*
X170730257Y-80415734D01*
X170759367Y-80424537D01*
X170788330Y-80432905D01*
X170845821Y-80451232D01*
X170873844Y-80460036D01*
X170900999Y-80468403D01*
X170927043Y-80477374D01*
X170951930Y-80485767D01*
X170975660Y-80493579D01*
X170998232Y-80500815D01*
X171009012Y-80504284D01*
X171019358Y-80507736D01*
X171029267Y-80511151D01*
X171038747Y-80514512D01*
X171056399Y-80520999D01*
X171072315Y-80527052D01*
X171675785Y-80758562D01*
X171675785Y-80906729D01*
X171072315Y-81136697D01*
X171064571Y-81139153D01*
X171056374Y-81141881D01*
X171038554Y-81148079D01*
X170996689Y-81162934D01*
X170949615Y-81177982D01*
X170924197Y-81186374D01*
X170897911Y-81195345D01*
X170870106Y-81203689D01*
X170842156Y-81212323D01*
X170813916Y-81220957D01*
X170785243Y-81229301D01*
X170756328Y-81238293D01*
X170727558Y-81246855D01*
X170719532Y-81249185D01*
X170723121Y-81249171D01*
X170750033Y-81248713D01*
X170777525Y-81247821D01*
X170887107Y-81244734D01*
X170988973Y-81243191D01*
X171072315Y-81243191D01*
X171675784Y-81243191D01*
X171675785Y-81412965D01*
X170552189Y-81412964D01*
X170552189Y-81159847D01*
X171197331Y-80917533D01*
X171229741Y-80906536D01*
X171239292Y-80903469D01*
X171249421Y-80900386D01*
X171260127Y-80897339D01*
X171271414Y-80894382D01*
X171293962Y-80887436D01*
X171317523Y-80880490D01*
X171341952Y-80873546D01*
X171367105Y-80866602D01*
X171393223Y-80859655D01*
X171418616Y-80852710D01*
X171468969Y-80838818D01*
X171485073Y-80834888D01*
X171465883Y-80829559D01*
X171453216Y-80826593D01*
X171440659Y-80823482D01*
X171428171Y-80820227D01*
X171415723Y-80816826D01*
X171390787Y-80809591D01*
X171365563Y-80801778D01*
X171269871Y-80775540D01*
X171248769Y-80768860D01*
X171229549Y-80762614D01*
X171220690Y-80759608D01*
X171212354Y-80756657D01*
X171204562Y-80753742D01*
X171197331Y-80750846D01*
X170552189Y-80506988D01*
X170552190Y-80253870D01*
X171675785Y-80253870D01*
X171675784Y-80420557D01*
G37*
%TD.AperFunction*%
D11*
X170350707Y-84020760D02*
X167533574Y-84020760D01*
X167533574Y-75838456D01*
X170350707Y-75838456D01*
X170350707Y-84020760D01*
D10*
%TA.AperFunction,NonConductor*%
G36*
X171675785Y-81858391D02*
G01*
X170552188Y-81858391D01*
X170552189Y-81685530D01*
X171675784Y-81685530D01*
X171675785Y-81858391D01*
G37*
%TD.AperFunction*%
%TA.AperFunction,NonConductor*%
G36*
X169175210Y-78604806D02*
G01*
X170070386Y-78604806D01*
X170070386Y-78947443D01*
X169175210Y-78947443D01*
X167823187Y-79771622D01*
X167823187Y-79373423D01*
X168542414Y-78956702D01*
X168570191Y-78939756D01*
X168597929Y-78923567D01*
X168625595Y-78908032D01*
X168653153Y-78893038D01*
X168707800Y-78864243D01*
X168761577Y-78836316D01*
X168790094Y-78822427D01*
X168820131Y-78808536D01*
X168851759Y-78794645D01*
X168885050Y-78780755D01*
X168889303Y-78779068D01*
X168887751Y-78778440D01*
X168854683Y-78764694D01*
X168823169Y-78751237D01*
X168793175Y-78738070D01*
X168764664Y-78725192D01*
X168710838Y-78696784D01*
X168655855Y-78666929D01*
X168599713Y-78635337D01*
X168571208Y-78618799D01*
X168542415Y-78601720D01*
X167823187Y-78178826D01*
X167823187Y-77777540D01*
X169175210Y-78604806D01*
G37*
%TD.AperFunction*%
%TA.AperFunction,NonConductor*%
G36*
X168928266Y-76107364D02*
G01*
X170070386Y-76107364D01*
X170070386Y-76450000D01*
X169221512Y-76450000D01*
X169221512Y-76906849D01*
X169221302Y-76927996D01*
X170070386Y-77382218D01*
X170070386Y-77774244D01*
X169163464Y-77278055D01*
X169155634Y-77297813D01*
X169145717Y-77320313D01*
X169135082Y-77342088D01*
X169124374Y-77363179D01*
X169113088Y-77383617D01*
X169101223Y-77403404D01*
X169088780Y-77422540D01*
X169075757Y-77441024D01*
X169062156Y-77458857D01*
X169047976Y-77476041D01*
X169033217Y-77492572D01*
X169017879Y-77508452D01*
X169001963Y-77523681D01*
X168985469Y-77538259D01*
X168968393Y-77552186D01*
X168950741Y-77565462D01*
X168932511Y-77578086D01*
X168913700Y-77590060D01*
X168894312Y-77601382D01*
X168874451Y-77612018D01*
X168854224Y-77621935D01*
X168833628Y-77631137D01*
X168812656Y-77639630D01*
X168791304Y-77647417D01*
X168769566Y-77654503D01*
X168747441Y-77660893D01*
X168724922Y-77666591D01*
X168702005Y-77671602D01*
X168678686Y-77675930D01*
X168654960Y-77679579D01*
X168630822Y-77682555D01*
X168606269Y-77684863D01*
X168581295Y-77686505D01*
X168555897Y-77687487D01*
X168530067Y-77687813D01*
X168504237Y-77687487D01*
X168478833Y-77686505D01*
X168453845Y-77684863D01*
X168429263Y-77682556D01*
X168405080Y-77679579D01*
X168381286Y-77675930D01*
X168357870Y-77671603D01*
X168334826Y-77666591D01*
X168312144Y-77660893D01*
X168289814Y-77654503D01*
X168267828Y-77647417D01*
X168246177Y-77639630D01*
X168224851Y-77631137D01*
X168203842Y-77621934D01*
X168183139Y-77612018D01*
X168162737Y-77601382D01*
X168143312Y-77590602D01*
X168124399Y-77579099D01*
X168106001Y-77566872D01*
X168088123Y-77553922D01*
X168070769Y-77540249D01*
X168053945Y-77525852D01*
X168037653Y-77510731D01*
X168021901Y-77494887D01*
X168006690Y-77478319D01*
X167992027Y-77461028D01*
X167977916Y-77443013D01*
X167964360Y-77424276D01*
X167951366Y-77404815D01*
X167938936Y-77384630D01*
X167927077Y-77363722D01*
X167915791Y-77342089D01*
X167904578Y-77320315D01*
X167894087Y-77297819D01*
X167884320Y-77274610D01*
X167875277Y-77250691D01*
X167866957Y-77226067D01*
X167859361Y-77200742D01*
X167852488Y-77174720D01*
X167846338Y-77148005D01*
X167840912Y-77120604D01*
X167836210Y-77092522D01*
X167832231Y-77063760D01*
X167828975Y-77034324D01*
X167826444Y-77004220D01*
X167824634Y-76973450D01*
X167823549Y-76942021D01*
X167823187Y-76909935D01*
X167823187Y-76450000D01*
X168119520Y-76450000D01*
X168119521Y-76872893D01*
X168119702Y-76893477D01*
X168120250Y-76913553D01*
X168121169Y-76933123D01*
X168122463Y-76952186D01*
X168124136Y-76970743D01*
X168126196Y-76988794D01*
X168128641Y-77006338D01*
X168131482Y-77023376D01*
X168134721Y-77039906D01*
X168138361Y-77055932D01*
X168142409Y-77071451D01*
X168146868Y-77086463D01*
X168151743Y-77100969D01*
X168157039Y-77114968D01*
X168162760Y-77128459D01*
X168168910Y-77141447D01*
X168175422Y-77153964D01*
X168182227Y-77166051D01*
X168189332Y-77177713D01*
X168196740Y-77188956D01*
X168204455Y-77199780D01*
X168212481Y-77210195D01*
X168220823Y-77220202D01*
X168229489Y-77229807D01*
X168238479Y-77239014D01*
X168247800Y-77247827D01*
X168257453Y-77256252D01*
X168267447Y-77264292D01*
X168277784Y-77271953D01*
X168288470Y-77279238D01*
X168299508Y-77286152D01*
X168310903Y-77292701D01*
X168322623Y-77298307D01*
X168334627Y-77303553D01*
X168346912Y-77308436D01*
X168359472Y-77312958D01*
X168372304Y-77317118D01*
X168385403Y-77320916D01*
X168398764Y-77324352D01*
X168412382Y-77327427D01*
X168426253Y-77330140D01*
X168440374Y-77332492D01*
X168454739Y-77334481D01*
X168469343Y-77336108D01*
X168484183Y-77337375D01*
X168499253Y-77338280D01*
X168514549Y-77338822D01*
X168530067Y-77339003D01*
X168545549Y-77338822D01*
X168560742Y-77338279D01*
X168575646Y-77337373D01*
X168590260Y-77336109D01*
X168604584Y-77334481D01*
X168618620Y-77332492D01*
X168632367Y-77330140D01*
X168645822Y-77327427D01*
X168658990Y-77324352D01*
X168671867Y-77320917D01*
X168684456Y-77317118D01*
X168696755Y-77312958D01*
X168708764Y-77308436D01*
X168720485Y-77303553D01*
X168731915Y-77298307D01*
X168743057Y-77292701D01*
X168754417Y-77286152D01*
X168765358Y-77279238D01*
X168775891Y-77271954D01*
X168786032Y-77264292D01*
X168795792Y-77256252D01*
X168805185Y-77247827D01*
X168814226Y-77239014D01*
X168822928Y-77229807D01*
X168831305Y-77220202D01*
X168839369Y-77210195D01*
X168847135Y-77199780D01*
X168854616Y-77188955D01*
X168861826Y-77177713D01*
X168868779Y-77166051D01*
X168875486Y-77153964D01*
X168881965Y-77141447D01*
X168887570Y-77128460D01*
X168892816Y-77114968D01*
X168897699Y-77100968D01*
X168902221Y-77086463D01*
X168906381Y-77071450D01*
X168910179Y-77055932D01*
X168913615Y-77039907D01*
X168916690Y-77023376D01*
X168919403Y-77006339D01*
X168921754Y-76988795D01*
X168923744Y-76970744D01*
X168925372Y-76952186D01*
X168927542Y-76913553D01*
X168928267Y-76872894D01*
X168928265Y-76450000D01*
X168119520Y-76450000D01*
X167823187Y-76450000D01*
X167823187Y-76107364D01*
X168928266Y-76107364D01*
G37*
%TD.AperFunction*%
%TA.AperFunction,NonConductor*%
G36*
X171228199Y-77175353D02*
G01*
X171675785Y-77175353D01*
X171675785Y-77346671D01*
X171228199Y-77346671D01*
X170552190Y-77758759D01*
X170552189Y-77559661D01*
X170911802Y-77351301D01*
X170925689Y-77342827D01*
X170939559Y-77334735D01*
X170953392Y-77326966D01*
X170967171Y-77319468D01*
X170994494Y-77305071D01*
X171021384Y-77291107D01*
X171035641Y-77284163D01*
X171050660Y-77277218D01*
X171066474Y-77270273D01*
X171083120Y-77263327D01*
X171085247Y-77262484D01*
X171084470Y-77262171D01*
X171067937Y-77255297D01*
X171052178Y-77248568D01*
X171037182Y-77241985D01*
X171022927Y-77235544D01*
X170996014Y-77221342D01*
X170968522Y-77206414D01*
X170940451Y-77190618D01*
X170926199Y-77182350D01*
X170911802Y-77173810D01*
X170552188Y-76962364D01*
X170552188Y-76761721D01*
X171228199Y-77175353D01*
G37*
%TD.AperFunction*%
%TA.AperFunction,NonConductor*%
G36*
X170070386Y-81901769D02*
G01*
X170070386Y-82250579D01*
X168872703Y-82250579D01*
X168837398Y-82250048D01*
X168796304Y-82248650D01*
X168696755Y-82244406D01*
X168576755Y-82239389D01*
X168510533Y-82236158D01*
X168440549Y-82232059D01*
X168242098Y-82224121D01*
X168303572Y-82257138D01*
X168379730Y-82297411D01*
X168449811Y-82333923D01*
X168570967Y-82402217D01*
X168626047Y-82433328D01*
X168678234Y-82463570D01*
X168726899Y-82491882D01*
X168775853Y-82521061D01*
X168875790Y-82580869D01*
X170070386Y-83340225D01*
X170070386Y-83738424D01*
X167823188Y-83738424D01*
X167823187Y-83389614D01*
X169101127Y-83389614D01*
X169142267Y-83389663D01*
X169187173Y-83390000D01*
X169236127Y-83390916D01*
X169289422Y-83392699D01*
X169402091Y-83397331D01*
X169524020Y-83401961D01*
X169650578Y-83411607D01*
X169660471Y-83412470D01*
X169647493Y-83406590D01*
X169586142Y-83377749D01*
X169527107Y-83349485D01*
X169470917Y-83319919D01*
X169417911Y-83291222D01*
X169367798Y-83263103D01*
X169343737Y-83249170D01*
X169320291Y-83235274D01*
X169275676Y-83210386D01*
X169234246Y-83186656D01*
X169195708Y-83164084D01*
X169159776Y-83142669D01*
X167823187Y-82296881D01*
X167823187Y-81901768D01*
X170070386Y-81901769D01*
G37*
%TD.AperFunction*%
%TA.AperFunction,NonConductor*%
G36*
X170070386Y-79987976D02*
G01*
X169477718Y-80189923D01*
X169477718Y-81073552D01*
X170070386Y-81281352D01*
X170070386Y-81651770D01*
X167823187Y-80839937D01*
X167823187Y-80625791D01*
X168096641Y-80625791D01*
X168106643Y-80628586D01*
X168234890Y-80665532D01*
X168462157Y-80731899D01*
X168562382Y-80761416D01*
X168655083Y-80789776D01*
X168740838Y-80816979D01*
X168820227Y-80843024D01*
X169190645Y-80972899D01*
X169190644Y-80287740D01*
X168820227Y-80413957D01*
X168744407Y-80438217D01*
X168660485Y-80464503D01*
X168568459Y-80492526D01*
X168468330Y-80521995D01*
X168239135Y-80586819D01*
X168096641Y-80625791D01*
X167823187Y-80625791D01*
X167823187Y-80417044D01*
X169190646Y-79930544D01*
X170070386Y-79617560D01*
X170070386Y-79987976D01*
G37*
%TD.AperFunction*%
D12*
D13*
X170615243Y-85462313D02*
X170567624Y-85509932D01*
X170567624Y-85509932D02*
X170520005Y-85605170D01*
X170520005Y-85605170D02*
X170520005Y-85843265D01*
X170520005Y-85843265D02*
X170567624Y-85938503D01*
X170567624Y-85938503D02*
X170615243Y-85986122D01*
X170615243Y-85986122D02*
X170710481Y-86033741D01*
X170710481Y-86033741D02*
X170805719Y-86033741D01*
X170805719Y-86033741D02*
X170948576Y-85986122D01*
X170948576Y-85986122D02*
X171520005Y-85414694D01*
X171520005Y-85414694D02*
X171520005Y-86033741D01*
X170520005Y-86652789D02*
X170520005Y-86748027D01*
X170520005Y-86748027D02*
X170567624Y-86843265D01*
X170567624Y-86843265D02*
X170615243Y-86890884D01*
X170615243Y-86890884D02*
X170710481Y-86938503D01*
X170710481Y-86938503D02*
X170900957Y-86986122D01*
X170900957Y-86986122D02*
X171139052Y-86986122D01*
X171139052Y-86986122D02*
X171329528Y-86938503D01*
X171329528Y-86938503D02*
X171424766Y-86890884D01*
X171424766Y-86890884D02*
X171472386Y-86843265D01*
X171472386Y-86843265D02*
X171520005Y-86748027D01*
X171520005Y-86748027D02*
X171520005Y-86652789D01*
X171520005Y-86652789D02*
X171472386Y-86557551D01*
X171472386Y-86557551D02*
X171424766Y-86509932D01*
X171424766Y-86509932D02*
X171329528Y-86462313D01*
X171329528Y-86462313D02*
X171139052Y-86414694D01*
X171139052Y-86414694D02*
X170900957Y-86414694D01*
X170900957Y-86414694D02*
X170710481Y-86462313D01*
X170710481Y-86462313D02*
X170615243Y-86509932D01*
X170615243Y-86509932D02*
X170567624Y-86557551D01*
X170567624Y-86557551D02*
X170520005Y-86652789D01*
X170615243Y-87367075D02*
X170567624Y-87414694D01*
X170567624Y-87414694D02*
X170520005Y-87509932D01*
X170520005Y-87509932D02*
X170520005Y-87748027D01*
X170520005Y-87748027D02*
X170567624Y-87843265D01*
X170567624Y-87843265D02*
X170615243Y-87890884D01*
X170615243Y-87890884D02*
X170710481Y-87938503D01*
X170710481Y-87938503D02*
X170805719Y-87938503D01*
X170805719Y-87938503D02*
X170948576Y-87890884D01*
X170948576Y-87890884D02*
X171520005Y-87319456D01*
X171520005Y-87319456D02*
X171520005Y-87938503D01*
X170520005Y-88795646D02*
X170520005Y-88605170D01*
X170520005Y-88605170D02*
X170567624Y-88509932D01*
X170567624Y-88509932D02*
X170615243Y-88462313D01*
X170615243Y-88462313D02*
X170758100Y-88367075D01*
X170758100Y-88367075D02*
X170948576Y-88319456D01*
X170948576Y-88319456D02*
X171329528Y-88319456D01*
X171329528Y-88319456D02*
X171424766Y-88367075D01*
X171424766Y-88367075D02*
X171472386Y-88414694D01*
X171472386Y-88414694D02*
X171520005Y-88509932D01*
X171520005Y-88509932D02*
X171520005Y-88700408D01*
X171520005Y-88700408D02*
X171472386Y-88795646D01*
X171472386Y-88795646D02*
X171424766Y-88843265D01*
X171424766Y-88843265D02*
X171329528Y-88890884D01*
X171329528Y-88890884D02*
X171091433Y-88890884D01*
X171091433Y-88890884D02*
X170996195Y-88843265D01*
X170996195Y-88843265D02*
X170948576Y-88795646D01*
X170948576Y-88795646D02*
X170900957Y-88700408D01*
X170900957Y-88700408D02*
X170900957Y-88509932D01*
X170900957Y-88509932D02*
X170948576Y-88414694D01*
X170948576Y-88414694D02*
X170996195Y-88367075D01*
X170996195Y-88367075D02*
X171091433Y-88319456D01*
D12*
D13*
X168520005Y-85509932D02*
X167520005Y-85509932D01*
X168520005Y-85986122D02*
X167520005Y-85986122D01*
X167520005Y-85986122D02*
X168520005Y-86557550D01*
X168520005Y-86557550D02*
X167520005Y-86557550D01*
X168520005Y-87033741D02*
X167520005Y-87033741D01*
X167520005Y-87033741D02*
X167520005Y-87414693D01*
X167520005Y-87414693D02*
X167567624Y-87509931D01*
X167567624Y-87509931D02*
X167615243Y-87557550D01*
X167615243Y-87557550D02*
X167710481Y-87605169D01*
X167710481Y-87605169D02*
X167853338Y-87605169D01*
X167853338Y-87605169D02*
X167948576Y-87557550D01*
X167948576Y-87557550D02*
X167996195Y-87509931D01*
X167996195Y-87509931D02*
X168043814Y-87414693D01*
X168043814Y-87414693D02*
X168043814Y-87033741D01*
X167520005Y-88033741D02*
X168329528Y-88033741D01*
X168329528Y-88033741D02*
X168424766Y-88081360D01*
X168424766Y-88081360D02*
X168472386Y-88128979D01*
X168472386Y-88128979D02*
X168520005Y-88224217D01*
X168520005Y-88224217D02*
X168520005Y-88414693D01*
X168520005Y-88414693D02*
X168472386Y-88509931D01*
X168472386Y-88509931D02*
X168424766Y-88557550D01*
X168424766Y-88557550D02*
X168329528Y-88605169D01*
X168329528Y-88605169D02*
X167520005Y-88605169D01*
X167520005Y-88938503D02*
X167520005Y-89509931D01*
X168520005Y-89224217D02*
X167520005Y-89224217D01*
X168520005Y-90605170D02*
X167520005Y-90605170D01*
X167520005Y-90605170D02*
X167520005Y-90986122D01*
X167520005Y-90986122D02*
X167567624Y-91081360D01*
X167567624Y-91081360D02*
X167615243Y-91128979D01*
X167615243Y-91128979D02*
X167710481Y-91176598D01*
X167710481Y-91176598D02*
X167853338Y-91176598D01*
X167853338Y-91176598D02*
X167948576Y-91128979D01*
X167948576Y-91128979D02*
X167996195Y-91081360D01*
X167996195Y-91081360D02*
X168043814Y-90986122D01*
X168043814Y-90986122D02*
X168043814Y-90605170D01*
X168520005Y-92176598D02*
X168043814Y-91843265D01*
X168520005Y-91605170D02*
X167520005Y-91605170D01*
X167520005Y-91605170D02*
X167520005Y-91986122D01*
X167520005Y-91986122D02*
X167567624Y-92081360D01*
X167567624Y-92081360D02*
X167615243Y-92128979D01*
X167615243Y-92128979D02*
X167710481Y-92176598D01*
X167710481Y-92176598D02*
X167853338Y-92176598D01*
X167853338Y-92176598D02*
X167948576Y-92128979D01*
X167948576Y-92128979D02*
X167996195Y-92081360D01*
X167996195Y-92081360D02*
X168043814Y-91986122D01*
X168043814Y-91986122D02*
X168043814Y-91605170D01*
X167520005Y-92795646D02*
X167520005Y-92986122D01*
X167520005Y-92986122D02*
X167567624Y-93081360D01*
X167567624Y-93081360D02*
X167662862Y-93176598D01*
X167662862Y-93176598D02*
X167853338Y-93224217D01*
X167853338Y-93224217D02*
X168186671Y-93224217D01*
X168186671Y-93224217D02*
X168377147Y-93176598D01*
X168377147Y-93176598D02*
X168472386Y-93081360D01*
X168472386Y-93081360D02*
X168520005Y-92986122D01*
X168520005Y-92986122D02*
X168520005Y-92795646D01*
X168520005Y-92795646D02*
X168472386Y-92700408D01*
X168472386Y-92700408D02*
X168377147Y-92605170D01*
X168377147Y-92605170D02*
X168186671Y-92557551D01*
X168186671Y-92557551D02*
X167853338Y-92557551D01*
X167853338Y-92557551D02*
X167662862Y-92605170D01*
X167662862Y-92605170D02*
X167567624Y-92700408D01*
X167567624Y-92700408D02*
X167520005Y-92795646D01*
X167520005Y-93509932D02*
X167520005Y-94081360D01*
X168520005Y-93795646D02*
X167520005Y-93795646D01*
X167996195Y-94414694D02*
X167996195Y-94748027D01*
X168520005Y-94890884D02*
X168520005Y-94414694D01*
X168520005Y-94414694D02*
X167520005Y-94414694D01*
X167520005Y-94414694D02*
X167520005Y-94890884D01*
X168424766Y-95890884D02*
X168472386Y-95843265D01*
X168472386Y-95843265D02*
X168520005Y-95700408D01*
X168520005Y-95700408D02*
X168520005Y-95605170D01*
X168520005Y-95605170D02*
X168472386Y-95462313D01*
X168472386Y-95462313D02*
X168377147Y-95367075D01*
X168377147Y-95367075D02*
X168281909Y-95319456D01*
X168281909Y-95319456D02*
X168091433Y-95271837D01*
X168091433Y-95271837D02*
X167948576Y-95271837D01*
X167948576Y-95271837D02*
X167758100Y-95319456D01*
X167758100Y-95319456D02*
X167662862Y-95367075D01*
X167662862Y-95367075D02*
X167567624Y-95462313D01*
X167567624Y-95462313D02*
X167520005Y-95605170D01*
X167520005Y-95605170D02*
X167520005Y-95700408D01*
X167520005Y-95700408D02*
X167567624Y-95843265D01*
X167567624Y-95843265D02*
X167615243Y-95890884D01*
X167520005Y-96176599D02*
X167520005Y-96748027D01*
X168520005Y-96462313D02*
X167520005Y-96462313D01*
X168520005Y-97081361D02*
X167520005Y-97081361D01*
X167520005Y-97748027D02*
X167520005Y-97938503D01*
X167520005Y-97938503D02*
X167567624Y-98033741D01*
X167567624Y-98033741D02*
X167662862Y-98128979D01*
X167662862Y-98128979D02*
X167853338Y-98176598D01*
X167853338Y-98176598D02*
X168186671Y-98176598D01*
X168186671Y-98176598D02*
X168377147Y-98128979D01*
X168377147Y-98128979D02*
X168472386Y-98033741D01*
X168472386Y-98033741D02*
X168520005Y-97938503D01*
X168520005Y-97938503D02*
X168520005Y-97748027D01*
X168520005Y-97748027D02*
X168472386Y-97652789D01*
X168472386Y-97652789D02*
X168377147Y-97557551D01*
X168377147Y-97557551D02*
X168186671Y-97509932D01*
X168186671Y-97509932D02*
X167853338Y-97509932D01*
X167853338Y-97509932D02*
X167662862Y-97557551D01*
X167662862Y-97557551D02*
X167567624Y-97652789D01*
X167567624Y-97652789D02*
X167520005Y-97748027D01*
X168520005Y-98605170D02*
X167520005Y-98605170D01*
X167520005Y-98605170D02*
X168520005Y-99176598D01*
X168520005Y-99176598D02*
X167520005Y-99176598D01*
D12*
G36*
X169895005Y-89361375D02*
G01*
X169869654Y-89412076D01*
X169850722Y-89431009D01*
X169800020Y-89456360D01*
X169716180Y-89456360D01*
X169665478Y-89431009D01*
X169653067Y-89418599D01*
X169621195Y-89322981D01*
X169621195Y-89134932D01*
X169895005Y-89134932D01*
X169895005Y-89361375D01*
G37*
G36*
X169371195Y-89313756D02*
G01*
X169345844Y-89364457D01*
X169326912Y-89383390D01*
X169276211Y-89408741D01*
X169239990Y-89408741D01*
X169189288Y-89383390D01*
X169170355Y-89364458D01*
X169145005Y-89313757D01*
X169145005Y-89134932D01*
X169371195Y-89134932D01*
X169371195Y-89313756D01*
G37*
G36*
X170270005Y-89831360D02*
G01*
X168770005Y-89831360D01*
X168770005Y-89009932D01*
X168895005Y-89009932D01*
X168895005Y-89343265D01*
X168897407Y-89367651D01*
X168899125Y-89371799D01*
X168899444Y-89376281D01*
X168908202Y-89399167D01*
X168955820Y-89494404D01*
X168962429Y-89504902D01*
X168963691Y-89507949D01*
X168966506Y-89511380D01*
X168968875Y-89515142D01*
X168971369Y-89517305D01*
X168979236Y-89526891D01*
X169026854Y-89574510D01*
X169036442Y-89582379D01*
X169038604Y-89584871D01*
X169042361Y-89587236D01*
X169045796Y-89590055D01*
X169048846Y-89591318D01*
X169059341Y-89597925D01*
X169154579Y-89645544D01*
X169177465Y-89654302D01*
X169181945Y-89654620D01*
X169186095Y-89656339D01*
X169210481Y-89658741D01*
X169305719Y-89658741D01*
X169330105Y-89656339D01*
X169334253Y-89654620D01*
X169338735Y-89654302D01*
X169361621Y-89645544D01*
X169456858Y-89597926D01*
X169467356Y-89591316D01*
X169470403Y-89590055D01*
X169470714Y-89589799D01*
X169503044Y-89622129D01*
X169512632Y-89629998D01*
X169514794Y-89632490D01*
X169518551Y-89634855D01*
X169521986Y-89637674D01*
X169525036Y-89638937D01*
X169535531Y-89645544D01*
X169630769Y-89693163D01*
X169653655Y-89701921D01*
X169658135Y-89702239D01*
X169662285Y-89703958D01*
X169686671Y-89706360D01*
X169829528Y-89706360D01*
X169853914Y-89703958D01*
X169858062Y-89702239D01*
X169862544Y-89701921D01*
X169885430Y-89693163D01*
X169980667Y-89645545D01*
X169991163Y-89638937D01*
X169994211Y-89637675D01*
X169997644Y-89634857D01*
X170001405Y-89632490D01*
X170003568Y-89629995D01*
X170013153Y-89622130D01*
X170060773Y-89574511D01*
X170068642Y-89564922D01*
X170071135Y-89562761D01*
X170073498Y-89559006D01*
X170076319Y-89555570D01*
X170077583Y-89552516D01*
X170084189Y-89542024D01*
X170131808Y-89446786D01*
X170140566Y-89423900D01*
X170140884Y-89419419D01*
X170142603Y-89415270D01*
X170145005Y-89390884D01*
X170145005Y-89009932D01*
X170142603Y-88985546D01*
X170123939Y-88940486D01*
X170089451Y-88905998D01*
X170044391Y-88887334D01*
X170020005Y-88884932D01*
X169020005Y-88884932D01*
X168995619Y-88887334D01*
X168950559Y-88905998D01*
X168916071Y-88940486D01*
X168897407Y-88985546D01*
X168895005Y-89009932D01*
X168770005Y-89009932D01*
X168770005Y-88759932D01*
X170270005Y-88759932D01*
X170270005Y-89831360D01*
G37*
D13*
X170020005Y-86081359D02*
X169543814Y-85748026D01*
X170020005Y-85509931D02*
X169020005Y-85509931D01*
X169020005Y-85509931D02*
X169020005Y-85890883D01*
X169020005Y-85890883D02*
X169067624Y-85986121D01*
X169067624Y-85986121D02*
X169115243Y-86033740D01*
X169115243Y-86033740D02*
X169210481Y-86081359D01*
X169210481Y-86081359D02*
X169353338Y-86081359D01*
X169353338Y-86081359D02*
X169448576Y-86033740D01*
X169448576Y-86033740D02*
X169496195Y-85986121D01*
X169496195Y-85986121D02*
X169543814Y-85890883D01*
X169543814Y-85890883D02*
X169543814Y-85509931D01*
X169496195Y-86509931D02*
X169496195Y-86843264D01*
X170020005Y-86986121D02*
X170020005Y-86509931D01*
X170020005Y-86509931D02*
X169020005Y-86509931D01*
X169020005Y-86509931D02*
X169020005Y-86986121D01*
X169020005Y-87271836D02*
X170020005Y-87605169D01*
X170020005Y-87605169D02*
X169020005Y-87938502D01*
D14*
D15*
X165619215Y-101971185D02*
X165547787Y-101899757D01*
X165547787Y-101899757D02*
X165404930Y-101828328D01*
X165404930Y-101828328D02*
X165047787Y-101828328D01*
X165047787Y-101828328D02*
X164904930Y-101899757D01*
X164904930Y-101899757D02*
X164833501Y-101971185D01*
X164833501Y-101971185D02*
X164762072Y-102114042D01*
X164762072Y-102114042D02*
X164762072Y-102256900D01*
X164762072Y-102256900D02*
X164833501Y-102471185D01*
X164833501Y-102471185D02*
X165690644Y-103328328D01*
X165690644Y-103328328D02*
X164762072Y-103328328D01*
%TO.C,ID901*%
D16*
X163690645Y-101150000D02*
X166690645Y-101150000D01*
X166690645Y-104150000D01*
X163690645Y-104150000D01*
X163690645Y-101150000D01*
%TD*%
D17*
%TO.P,H904,1,1*%
%TO.N,GND*%
X125690645Y-102650000D03*
%TD*%
D18*
%TO.P,J101,1*%
%TO.N,VIN*%
X157990645Y-71150000D03*
D19*
%TO.P,J101,2*%
%TO.N,GND*%
X164190645Y-71150000D03*
D20*
%TO.P,J101,3*%
%TO.N,unconnected-(J101-Pad3)*%
X161190645Y-66450000D03*
%TD*%
D17*
%TO.P,H902,1,1*%
%TO.N,GND*%
X169690645Y-58650000D03*
%TD*%
D21*
%TO.P,J102,1,Pin_1*%
%TO.N,VIN*%
X164375000Y-60250000D03*
D22*
%TO.P,J102,2,Pin_2*%
%TO.N,GND*%
X160565000Y-60250000D03*
%TD*%
D17*
%TO.P,H903,1,1*%
%TO.N,GND*%
X169690645Y-102650000D03*
%TD*%
D18*
%TO.P,J104,1*%
%TO.N,VOUT*%
X137390645Y-71150000D03*
D19*
%TO.P,J104,2*%
%TO.N,GND*%
X131190645Y-71150000D03*
D20*
%TO.P,J104,3*%
%TO.N,unconnected-(J104-Pad3)*%
X134190645Y-75850000D03*
%TD*%
D21*
%TO.P,J103,1,Pin_1*%
%TO.N,VOUT*%
X134875000Y-60250000D03*
D22*
%TO.P,J103,2,Pin_2*%
%TO.N,GND*%
X131065000Y-60250000D03*
%TD*%
D17*
%TO.P,H901,1,1*%
%TO.N,GND*%
X125690645Y-58650000D03*
%TD*%
D23*
%TO.N,V_I*%
X156090645Y-94650000D03*
X156090645Y-91050000D03*
%TO.N,GND*%
X135490645Y-86850000D03*
X149190645Y-73150000D03*
X135690645Y-90900000D03*
X148640645Y-83650000D03*
X166690645Y-97285000D03*
X146690645Y-98555000D03*
X158690645Y-98555000D03*
X143440645Y-85650000D03*
X150690645Y-90900000D03*
X165690645Y-90900000D03*
X143290645Y-86900000D03*
X156940645Y-83650000D03*
X140690645Y-93150000D03*
X129065645Y-78050000D03*
X128690645Y-98555000D03*
X152190645Y-99900000D03*
X150690645Y-68150000D03*
X150440645Y-88150000D03*
X153190645Y-71900000D03*
X138190645Y-96400000D03*
X138290645Y-86850000D03*
D24*
X158065646Y-101150000D03*
D23*
X137290645Y-89150000D03*
X157190645Y-97550000D03*
X160940645Y-80050000D03*
X125740645Y-96100000D03*
X124490645Y-84500000D03*
X136190645Y-89625000D03*
X166690645Y-98555000D03*
X144940645Y-103150000D03*
X124490645Y-82900000D03*
X141190645Y-57150000D03*
X143190645Y-99900000D03*
%TO.N,VCC*%
X138190645Y-92150000D03*
X137190645Y-93150000D03*
X144190645Y-92350000D03*
X149490645Y-93450000D03*
%TO.N,/SCHEMATIC/OC_PEAK_REF*%
X131865645Y-92400000D03*
X131865645Y-94150000D03*
%TO.N,/SCHEMATIC/OC_1A_REF*%
X133515645Y-94150000D03*
X133515645Y-92400000D03*
%TO.N,/SCHEMATIC/V_SENSE*%
X146440645Y-89150000D03*
X149190645Y-89150000D03*
%TO.N,/SCHEMATIC/GATE_P*%
X154690645Y-81900000D03*
X156640645Y-81900000D03*
%TO.N,VOLTAGE_OK*%
X153690645Y-99050000D03*
X155090645Y-100650000D03*
%TO.N,SYS_OK*%
X146690645Y-94650000D03*
X148690645Y-94650000D03*
%TO.N,OC_FAULT*%
X137440645Y-100400000D03*
X137440645Y-101900000D03*
%TD*%
D25*
%TO.N,V_I*%
X156090645Y-94650000D02*
X156090645Y-91050000D01*
D26*
%TO.N,VCC*%
X137190645Y-93150000D02*
X138190645Y-92150000D01*
X144190645Y-92350000D02*
X144790645Y-92350000D01*
X144790645Y-92350000D02*
X145890645Y-93450000D01*
X145890645Y-93450000D02*
X149490645Y-93450000D01*
D25*
%TO.N,/SCHEMATIC/OC_PEAK_REF*%
X131865645Y-92400000D02*
X131865645Y-94150000D01*
%TO.N,/SCHEMATIC/OC_1A_REF*%
X133515645Y-92400000D02*
X133515645Y-94150000D01*
%TO.N,/SCHEMATIC/V_SENSE*%
X149190645Y-89150000D02*
X146440645Y-89150000D01*
%TO.N,/SCHEMATIC/GATE_P*%
X156640645Y-81900000D02*
X156690645Y-81950000D01*
X154690645Y-81900000D02*
X156640645Y-81900000D01*
%TO.N,VOLTAGE_OK*%
X153690645Y-99250000D02*
X155090645Y-100650000D01*
X153690645Y-99050000D02*
X153690645Y-99250000D01*
%TO.N,SYS_OK*%
X148690645Y-94650000D02*
X146690645Y-94650000D01*
%TO.N,OC_FAULT*%
X137440645Y-101900000D02*
X137440645Y-100400000D01*
%TD*%
%TA.AperFunction,Conductor*%
%TO.N,GND*%
G36*
X169694112Y-55900695D02*
G01*
X169991538Y-55917402D01*
X170005342Y-55918958D01*
X170295598Y-55968278D01*
X170309149Y-55971372D01*
X170592052Y-56052878D01*
X170605159Y-56057464D01*
X170877154Y-56170133D01*
X170889682Y-56176166D01*
X171147348Y-56318576D01*
X171159122Y-56325974D01*
X171399223Y-56496338D01*
X171410095Y-56505008D01*
X171629616Y-56701187D01*
X171639448Y-56711020D01*
X171835613Y-56930532D01*
X171844281Y-56941401D01*
X172014625Y-57181481D01*
X172014646Y-57181510D01*
X172022044Y-57193285D01*
X172164452Y-57450957D01*
X172170485Y-57463485D01*
X172283142Y-57735466D01*
X172287735Y-57748590D01*
X172369239Y-58031496D01*
X172372333Y-58045054D01*
X172421645Y-58335290D01*
X172423202Y-58349107D01*
X172439950Y-58647333D01*
X172440145Y-58654286D01*
X172440145Y-102646519D01*
X172439950Y-102653472D01*
X172423247Y-102950891D01*
X172421690Y-102964709D01*
X172372375Y-103254947D01*
X172369281Y-103268504D01*
X172287779Y-103551404D01*
X172283186Y-103564529D01*
X172170522Y-103836519D01*
X172164490Y-103849045D01*
X172022075Y-104106722D01*
X172014683Y-104118486D01*
X171844319Y-104358587D01*
X171835649Y-104369459D01*
X171639469Y-104588980D01*
X171629636Y-104598812D01*
X171410120Y-104794980D01*
X171399248Y-104803651D01*
X171159144Y-104974009D01*
X171147370Y-104981406D01*
X170889706Y-105123809D01*
X170877177Y-105129843D01*
X170605177Y-105242504D01*
X170592052Y-105247096D01*
X170309157Y-105328592D01*
X170295600Y-105331686D01*
X170005362Y-105380995D01*
X169991544Y-105382552D01*
X169693136Y-105399305D01*
X169686185Y-105399500D01*
X125694119Y-105399500D01*
X125687168Y-105399305D01*
X125389742Y-105382606D01*
X125375924Y-105381049D01*
X125085679Y-105331738D01*
X125072122Y-105328644D01*
X124789223Y-105247146D01*
X124776098Y-105242554D01*
X124504093Y-105129890D01*
X124491564Y-105123856D01*
X124233894Y-104981450D01*
X124222120Y-104974052D01*
X124222059Y-104974009D01*
X124173393Y-104939479D01*
X123982012Y-104803689D01*
X123971140Y-104795019D01*
X123751620Y-104598848D01*
X123741787Y-104589016D01*
X123545604Y-104369490D01*
X123536934Y-104358618D01*
X123471210Y-104265990D01*
X123366561Y-104118503D01*
X123359176Y-104106749D01*
X123216754Y-103849060D01*
X123210731Y-103836553D01*
X123098056Y-103564533D01*
X123093473Y-103551436D01*
X123011961Y-103268504D01*
X123008870Y-103254958D01*
X122959555Y-102964714D01*
X122959554Y-102964709D01*
X122959554Y-102964706D01*
X122957999Y-102950905D01*
X122941340Y-102654273D01*
X122941145Y-102647320D01*
X122941145Y-100334108D01*
X136940145Y-100334108D01*
X136940145Y-100465891D01*
X136974253Y-100593187D01*
X137007199Y-100650250D01*
X137040145Y-100707314D01*
X137133331Y-100800500D01*
X137178145Y-100826373D01*
X137226361Y-100876940D01*
X137240145Y-100933760D01*
X137240145Y-101366238D01*
X137220460Y-101433277D01*
X137178148Y-101473624D01*
X137133331Y-101499500D01*
X137133328Y-101499502D01*
X137040147Y-101592683D01*
X137040145Y-101592686D01*
X136974253Y-101706812D01*
X136940145Y-101834108D01*
X136940145Y-101965891D01*
X136974253Y-102093187D01*
X137007199Y-102150250D01*
X137040145Y-102207314D01*
X137133331Y-102300500D01*
X137247459Y-102366392D01*
X137374753Y-102400500D01*
X137374755Y-102400500D01*
X137506535Y-102400500D01*
X137506537Y-102400500D01*
X137633831Y-102366392D01*
X137747959Y-102300500D01*
X137841145Y-102207314D01*
X137907037Y-102093186D01*
X137941145Y-101965892D01*
X137941145Y-101834108D01*
X137907037Y-101706814D01*
X137841145Y-101592686D01*
X137747959Y-101499500D01*
X137724202Y-101485784D01*
X137703142Y-101473624D01*
X137654928Y-101423055D01*
X137641145Y-101366238D01*
X137641145Y-100933760D01*
X137660830Y-100866721D01*
X137703144Y-100826373D01*
X137747959Y-100800500D01*
X137841145Y-100707314D01*
X137907037Y-100593186D01*
X137941145Y-100465892D01*
X137941145Y-100334108D01*
X137907037Y-100206814D01*
X137841145Y-100092686D01*
X137747959Y-99999500D01*
X137690895Y-99966554D01*
X137633832Y-99933608D01*
X137570184Y-99916554D01*
X137506537Y-99899500D01*
X137374753Y-99899500D01*
X137247457Y-99933608D01*
X137133331Y-99999500D01*
X137133328Y-99999502D01*
X137040147Y-100092683D01*
X137040145Y-100092686D01*
X136974253Y-100206812D01*
X136940145Y-100334108D01*
X122941145Y-100334108D01*
X122941145Y-98984108D01*
X153190145Y-98984108D01*
X153190145Y-99115891D01*
X153224253Y-99243187D01*
X153256875Y-99299688D01*
X153290145Y-99357314D01*
X153383331Y-99450500D01*
X153497459Y-99516392D01*
X153624753Y-99550500D01*
X153656233Y-99550500D01*
X153723272Y-99570185D01*
X153743914Y-99586819D01*
X154571444Y-100414349D01*
X154604929Y-100475672D01*
X154603538Y-100534122D01*
X154590145Y-100584106D01*
X154590145Y-100715891D01*
X154624253Y-100843187D01*
X154643741Y-100876940D01*
X154690145Y-100957314D01*
X154783331Y-101050500D01*
X154897459Y-101116392D01*
X155024753Y-101150500D01*
X155024755Y-101150500D01*
X155156535Y-101150500D01*
X155156537Y-101150500D01*
X155283831Y-101116392D01*
X155294144Y-101110438D01*
X163390145Y-101110438D01*
X163390145Y-104189562D01*
X163403797Y-104240513D01*
X163410624Y-104265990D01*
X163410627Y-104265995D01*
X163450180Y-104334504D01*
X163450184Y-104334509D01*
X163450185Y-104334511D01*
X163506134Y-104390460D01*
X163506136Y-104390461D01*
X163506140Y-104390464D01*
X163562138Y-104422794D01*
X163574656Y-104430021D01*
X163651083Y-104450500D01*
X163651085Y-104450500D01*
X166730205Y-104450500D01*
X166730207Y-104450500D01*
X166806634Y-104430021D01*
X166875156Y-104390460D01*
X166931105Y-104334511D01*
X166970666Y-104265989D01*
X166991145Y-104189562D01*
X166991145Y-101110438D01*
X166970666Y-101034011D01*
X166959476Y-101014629D01*
X166931109Y-100965495D01*
X166931103Y-100965487D01*
X166875157Y-100909541D01*
X166875149Y-100909535D01*
X166806640Y-100869982D01*
X166806635Y-100869979D01*
X166777487Y-100862169D01*
X166730207Y-100849500D01*
X163730207Y-100849500D01*
X163651083Y-100849500D01*
X163612869Y-100859739D01*
X163574654Y-100869979D01*
X163574649Y-100869982D01*
X163506140Y-100909535D01*
X163506132Y-100909541D01*
X163450186Y-100965487D01*
X163450180Y-100965495D01*
X163410627Y-101034004D01*
X163410624Y-101034009D01*
X163396971Y-101084962D01*
X163390145Y-101110438D01*
X155294144Y-101110438D01*
X155397959Y-101050500D01*
X155491145Y-100957314D01*
X155557037Y-100843186D01*
X155591145Y-100715892D01*
X155591145Y-100584108D01*
X155557037Y-100456814D01*
X155491145Y-100342686D01*
X155397959Y-100249500D01*
X155324025Y-100206814D01*
X155283832Y-100183608D01*
X155200314Y-100161230D01*
X155156537Y-100149500D01*
X155024753Y-100149500D01*
X155024751Y-100149500D01*
X154974767Y-100162893D01*
X154904917Y-100161230D01*
X154854994Y-100130799D01*
X154154898Y-99430703D01*
X154121413Y-99369380D01*
X154126397Y-99299688D01*
X154135193Y-99281020D01*
X154157036Y-99243188D01*
X154157037Y-99243186D01*
X154191145Y-99115892D01*
X154191145Y-98984108D01*
X154157037Y-98856814D01*
X154091145Y-98742686D01*
X153997959Y-98649500D01*
X153940895Y-98616554D01*
X153883832Y-98583608D01*
X153820184Y-98566554D01*
X153756537Y-98549500D01*
X153624753Y-98549500D01*
X153497457Y-98583608D01*
X153383331Y-98649500D01*
X153383328Y-98649502D01*
X153290147Y-98742683D01*
X153290145Y-98742686D01*
X153224253Y-98856812D01*
X153190145Y-98984108D01*
X122941145Y-98984108D01*
X122941145Y-92334108D01*
X131365145Y-92334108D01*
X131365145Y-92465891D01*
X131399253Y-92593187D01*
X131412650Y-92616391D01*
X131465145Y-92707314D01*
X131558331Y-92800500D01*
X131603145Y-92826373D01*
X131651361Y-92876940D01*
X131665145Y-92933760D01*
X131665145Y-93616238D01*
X131645460Y-93683277D01*
X131603148Y-93723624D01*
X131558331Y-93749500D01*
X131558328Y-93749502D01*
X131465147Y-93842683D01*
X131465145Y-93842686D01*
X131399253Y-93956812D01*
X131365145Y-94084108D01*
X131365145Y-94215891D01*
X131399253Y-94343187D01*
X131424838Y-94387500D01*
X131465145Y-94457314D01*
X131558331Y-94550500D01*
X131672459Y-94616392D01*
X131799753Y-94650500D01*
X131799755Y-94650500D01*
X131931535Y-94650500D01*
X131931537Y-94650500D01*
X132058831Y-94616392D01*
X132172959Y-94550500D01*
X132266145Y-94457314D01*
X132332037Y-94343186D01*
X132366145Y-94215892D01*
X132366145Y-94084108D01*
X132332037Y-93956814D01*
X132266145Y-93842686D01*
X132172959Y-93749500D01*
X132149202Y-93735784D01*
X132128142Y-93723624D01*
X132079928Y-93673055D01*
X132066145Y-93616238D01*
X132066145Y-92933760D01*
X132085830Y-92866721D01*
X132128144Y-92826373D01*
X132172959Y-92800500D01*
X132266145Y-92707314D01*
X132332037Y-92593186D01*
X132366145Y-92465892D01*
X132366145Y-92334108D01*
X133015145Y-92334108D01*
X133015145Y-92465891D01*
X133049253Y-92593187D01*
X133062650Y-92616391D01*
X133115145Y-92707314D01*
X133208331Y-92800500D01*
X133253145Y-92826373D01*
X133301361Y-92876940D01*
X133315145Y-92933760D01*
X133315145Y-93616238D01*
X133295460Y-93683277D01*
X133253148Y-93723624D01*
X133208331Y-93749500D01*
X133208328Y-93749502D01*
X133115147Y-93842683D01*
X133115145Y-93842686D01*
X133049253Y-93956812D01*
X133015145Y-94084108D01*
X133015145Y-94215891D01*
X133049253Y-94343187D01*
X133074838Y-94387500D01*
X133115145Y-94457314D01*
X133208331Y-94550500D01*
X133322459Y-94616392D01*
X133449753Y-94650500D01*
X133449755Y-94650500D01*
X133581535Y-94650500D01*
X133581537Y-94650500D01*
X133708831Y-94616392D01*
X133764748Y-94584108D01*
X146190145Y-94584108D01*
X146190145Y-94715891D01*
X146224253Y-94843187D01*
X146236434Y-94864284D01*
X146290145Y-94957314D01*
X146383331Y-95050500D01*
X146497459Y-95116392D01*
X146624753Y-95150500D01*
X146624755Y-95150500D01*
X146756535Y-95150500D01*
X146756537Y-95150500D01*
X146883831Y-95116392D01*
X146997959Y-95050500D01*
X147091145Y-94957314D01*
X147117018Y-94912499D01*
X147167585Y-94864284D01*
X147224405Y-94850500D01*
X148156885Y-94850500D01*
X148223924Y-94870185D01*
X148264271Y-94912499D01*
X148290145Y-94957314D01*
X148383331Y-95050500D01*
X148497459Y-95116392D01*
X148624753Y-95150500D01*
X148624755Y-95150500D01*
X148756535Y-95150500D01*
X148756537Y-95150500D01*
X148883831Y-95116392D01*
X148997959Y-95050500D01*
X149091145Y-94957314D01*
X149157037Y-94843186D01*
X149191145Y-94715892D01*
X149191145Y-94584108D01*
X149157037Y-94456814D01*
X149091145Y-94342686D01*
X148997959Y-94249500D01*
X148939745Y-94215890D01*
X148883832Y-94183608D01*
X148820184Y-94166554D01*
X148756537Y-94149500D01*
X148624753Y-94149500D01*
X148497457Y-94183608D01*
X148383331Y-94249500D01*
X148383328Y-94249502D01*
X148290146Y-94342684D01*
X148264272Y-94387500D01*
X148213705Y-94435716D01*
X148156885Y-94449500D01*
X147224405Y-94449500D01*
X147157366Y-94429815D01*
X147117018Y-94387500D01*
X147091145Y-94342686D01*
X146997959Y-94249500D01*
X146939745Y-94215890D01*
X146883832Y-94183608D01*
X146820184Y-94166554D01*
X146756537Y-94149500D01*
X146624753Y-94149500D01*
X146497457Y-94183608D01*
X146383331Y-94249500D01*
X146383328Y-94249502D01*
X146290147Y-94342683D01*
X146290145Y-94342686D01*
X146224253Y-94456812D01*
X146190145Y-94584108D01*
X133764748Y-94584108D01*
X133822959Y-94550500D01*
X133916145Y-94457314D01*
X133982037Y-94343186D01*
X134016145Y-94215892D01*
X134016145Y-94084108D01*
X133982037Y-93956814D01*
X133916145Y-93842686D01*
X133822959Y-93749500D01*
X133799202Y-93735784D01*
X133778142Y-93723624D01*
X133729928Y-93673055D01*
X133716145Y-93616238D01*
X133716145Y-93084108D01*
X136690145Y-93084108D01*
X136690145Y-93215891D01*
X136724253Y-93343187D01*
X136757199Y-93400250D01*
X136790145Y-93457314D01*
X136883331Y-93550500D01*
X136997459Y-93616392D01*
X137124753Y-93650500D01*
X137124755Y-93650500D01*
X137256535Y-93650500D01*
X137256537Y-93650500D01*
X137383831Y-93616392D01*
X137497959Y-93550500D01*
X137591145Y-93457314D01*
X137657037Y-93343186D01*
X137691145Y-93215892D01*
X137691145Y-93084108D01*
X137691144Y-93084107D01*
X137690084Y-93076051D01*
X137693031Y-93075662D01*
X137694359Y-93020033D01*
X137724786Y-92970117D01*
X138010762Y-92684141D01*
X138072083Y-92650658D01*
X138116396Y-92651711D01*
X138116696Y-92649439D01*
X138124752Y-92650499D01*
X138124753Y-92650500D01*
X138124754Y-92650500D01*
X138256535Y-92650500D01*
X138256537Y-92650500D01*
X138383831Y-92616392D01*
X138497959Y-92550500D01*
X138591145Y-92457314D01*
X138657037Y-92343186D01*
X138672867Y-92284108D01*
X143690145Y-92284108D01*
X143690145Y-92415892D01*
X143703542Y-92465890D01*
X143724253Y-92543187D01*
X143753121Y-92593186D01*
X143790145Y-92657314D01*
X143883331Y-92750500D01*
X143997459Y-92816392D01*
X144124753Y-92850500D01*
X144124755Y-92850500D01*
X144256535Y-92850500D01*
X144256537Y-92850500D01*
X144383831Y-92816392D01*
X144497959Y-92750500D01*
X144579743Y-92668715D01*
X144641062Y-92635233D01*
X144710754Y-92640217D01*
X144755102Y-92668718D01*
X145671210Y-93584825D01*
X145671213Y-93584829D01*
X145678281Y-93591897D01*
X145748748Y-93662364D01*
X145840817Y-93700500D01*
X145940473Y-93700500D01*
X148985752Y-93700500D01*
X149052791Y-93720185D01*
X149083377Y-93752260D01*
X149085197Y-93750865D01*
X149090143Y-93757311D01*
X149090145Y-93757314D01*
X149183331Y-93850500D01*
X149297459Y-93916392D01*
X149424753Y-93950500D01*
X149424755Y-93950500D01*
X149556535Y-93950500D01*
X149556537Y-93950500D01*
X149683831Y-93916392D01*
X149797959Y-93850500D01*
X149891145Y-93757314D01*
X149957037Y-93643186D01*
X149991145Y-93515892D01*
X149991145Y-93384108D01*
X149957037Y-93256814D01*
X149891145Y-93142686D01*
X149797959Y-93049500D01*
X149740895Y-93016554D01*
X149683832Y-92983608D01*
X149583833Y-92956814D01*
X149556537Y-92949500D01*
X149424753Y-92949500D01*
X149297457Y-92983608D01*
X149183331Y-93049500D01*
X149183328Y-93049502D01*
X149090147Y-93142683D01*
X149085197Y-93149135D01*
X149082837Y-93147324D01*
X149042565Y-93185720D01*
X148985752Y-93199500D01*
X146045767Y-93199500D01*
X145978728Y-93179815D01*
X145958086Y-93163181D01*
X145461384Y-92666479D01*
X144932542Y-92137636D01*
X144840474Y-92099500D01*
X144840473Y-92099500D01*
X144695538Y-92099500D01*
X144628499Y-92079815D01*
X144597912Y-92047739D01*
X144596093Y-92049135D01*
X144591147Y-92042689D01*
X144591145Y-92042686D01*
X144497959Y-91949500D01*
X144411357Y-91899500D01*
X144383832Y-91883608D01*
X144320184Y-91866554D01*
X144256537Y-91849500D01*
X144124753Y-91849500D01*
X143997457Y-91883608D01*
X143883331Y-91949500D01*
X143883328Y-91949502D01*
X143790147Y-92042683D01*
X143790145Y-92042686D01*
X143724253Y-92156812D01*
X143706161Y-92224335D01*
X143690145Y-92284108D01*
X138672867Y-92284108D01*
X138691145Y-92215892D01*
X138691145Y-92084108D01*
X138657037Y-91956814D01*
X138591145Y-91842686D01*
X138497959Y-91749500D01*
X138440895Y-91716554D01*
X138383832Y-91683608D01*
X138320184Y-91666554D01*
X138256537Y-91649500D01*
X138124753Y-91649500D01*
X137997457Y-91683608D01*
X137883331Y-91749500D01*
X137883328Y-91749502D01*
X137790147Y-91842683D01*
X137790145Y-91842686D01*
X137724253Y-91956812D01*
X137690145Y-92084108D01*
X137690145Y-92215890D01*
X137691206Y-92223948D01*
X137688261Y-92224335D01*
X137686922Y-92279988D01*
X137656501Y-92329882D01*
X137370527Y-92615856D01*
X137309204Y-92649341D01*
X137264891Y-92648291D01*
X137264593Y-92650561D01*
X137256538Y-92649500D01*
X137256537Y-92649500D01*
X137124753Y-92649500D01*
X136997457Y-92683608D01*
X136883331Y-92749500D01*
X136883328Y-92749502D01*
X136790147Y-92842683D01*
X136790145Y-92842686D01*
X136724253Y-92956812D01*
X136690145Y-93084108D01*
X133716145Y-93084108D01*
X133716145Y-92933760D01*
X133735830Y-92866721D01*
X133778144Y-92826373D01*
X133822959Y-92800500D01*
X133916145Y-92707314D01*
X133982037Y-92593186D01*
X134016145Y-92465892D01*
X134016145Y-92334108D01*
X133982037Y-92206814D01*
X133916145Y-92092686D01*
X133822959Y-91999500D01*
X133749025Y-91956814D01*
X133708832Y-91933608D01*
X133645184Y-91916554D01*
X133581537Y-91899500D01*
X133449753Y-91899500D01*
X133322457Y-91933608D01*
X133208331Y-91999500D01*
X133208328Y-91999502D01*
X133115147Y-92092683D01*
X133115145Y-92092686D01*
X133049253Y-92206812D01*
X133015145Y-92334108D01*
X132366145Y-92334108D01*
X132332037Y-92206814D01*
X132266145Y-92092686D01*
X132172959Y-91999500D01*
X132099025Y-91956814D01*
X132058832Y-91933608D01*
X131995184Y-91916554D01*
X131931537Y-91899500D01*
X131799753Y-91899500D01*
X131672457Y-91933608D01*
X131558331Y-91999500D01*
X131558328Y-91999502D01*
X131465147Y-92092683D01*
X131465145Y-92092686D01*
X131399253Y-92206812D01*
X131365145Y-92334108D01*
X122941145Y-92334108D01*
X122941145Y-90984108D01*
X155590145Y-90984108D01*
X155590145Y-91115891D01*
X155624253Y-91243187D01*
X155657199Y-91300250D01*
X155690145Y-91357314D01*
X155783331Y-91450500D01*
X155828145Y-91476373D01*
X155876361Y-91526940D01*
X155890145Y-91583760D01*
X155890145Y-94116238D01*
X155870460Y-94183277D01*
X155828148Y-94223624D01*
X155783331Y-94249500D01*
X155783328Y-94249502D01*
X155690147Y-94342683D01*
X155690145Y-94342686D01*
X155624253Y-94456812D01*
X155590145Y-94584108D01*
X155590145Y-94715891D01*
X155624253Y-94843187D01*
X155636434Y-94864284D01*
X155690145Y-94957314D01*
X155783331Y-95050500D01*
X155897459Y-95116392D01*
X156024753Y-95150500D01*
X156024755Y-95150500D01*
X156156535Y-95150500D01*
X156156537Y-95150500D01*
X156283831Y-95116392D01*
X156397959Y-95050500D01*
X156491145Y-94957314D01*
X156557037Y-94843186D01*
X156591145Y-94715892D01*
X156591145Y-94584108D01*
X156557037Y-94456814D01*
X156491145Y-94342686D01*
X156397959Y-94249500D01*
X156374202Y-94235784D01*
X156353142Y-94223624D01*
X156304928Y-94173055D01*
X156291145Y-94116238D01*
X156291145Y-91583760D01*
X156310830Y-91516721D01*
X156353144Y-91476373D01*
X156397959Y-91450500D01*
X156491145Y-91357314D01*
X156557037Y-91243186D01*
X156591145Y-91115892D01*
X156591145Y-90984108D01*
X156557037Y-90856814D01*
X156491145Y-90742686D01*
X156397959Y-90649500D01*
X156340895Y-90616554D01*
X156283832Y-90583608D01*
X156220184Y-90566554D01*
X156156537Y-90549500D01*
X156024753Y-90549500D01*
X155897457Y-90583608D01*
X155783331Y-90649500D01*
X155783328Y-90649502D01*
X155690147Y-90742683D01*
X155690145Y-90742686D01*
X155624253Y-90856812D01*
X155590145Y-90984108D01*
X122941145Y-90984108D01*
X122941145Y-89084108D01*
X145940145Y-89084108D01*
X145940145Y-89215891D01*
X145974253Y-89343187D01*
X145986434Y-89364284D01*
X146040145Y-89457314D01*
X146133331Y-89550500D01*
X146247459Y-89616392D01*
X146374753Y-89650500D01*
X146374755Y-89650500D01*
X146506535Y-89650500D01*
X146506537Y-89650500D01*
X146633831Y-89616392D01*
X146747959Y-89550500D01*
X146841145Y-89457314D01*
X146867018Y-89412499D01*
X146917585Y-89364284D01*
X146974405Y-89350500D01*
X148656885Y-89350500D01*
X148723924Y-89370185D01*
X148764271Y-89412499D01*
X148790145Y-89457314D01*
X148883331Y-89550500D01*
X148997459Y-89616392D01*
X149124753Y-89650500D01*
X149124755Y-89650500D01*
X149256535Y-89650500D01*
X149256537Y-89650500D01*
X149383831Y-89616392D01*
X149497959Y-89550500D01*
X149591145Y-89457314D01*
X149657037Y-89343186D01*
X149691145Y-89215892D01*
X149691145Y-89084108D01*
X149657037Y-88956814D01*
X149591145Y-88842686D01*
X149497959Y-88749500D01*
X149440895Y-88716554D01*
X149383832Y-88683608D01*
X149320184Y-88666554D01*
X149256537Y-88649500D01*
X149124753Y-88649500D01*
X148997457Y-88683608D01*
X148883331Y-88749500D01*
X148883328Y-88749502D01*
X148790146Y-88842684D01*
X148764272Y-88887500D01*
X148713705Y-88935716D01*
X148656885Y-88949500D01*
X146974405Y-88949500D01*
X146907366Y-88929815D01*
X146867018Y-88887500D01*
X146841145Y-88842686D01*
X146747959Y-88749500D01*
X146690895Y-88716554D01*
X146633832Y-88683608D01*
X146570184Y-88666554D01*
X146506537Y-88649500D01*
X146374753Y-88649500D01*
X146247457Y-88683608D01*
X146133331Y-88749500D01*
X146133328Y-88749502D01*
X146040147Y-88842683D01*
X146040145Y-88842686D01*
X145974253Y-88956812D01*
X145940145Y-89084108D01*
X122941145Y-89084108D01*
X122941145Y-85135859D01*
X167187407Y-85135859D01*
X167187407Y-99536698D01*
X167187811Y-99537438D01*
X167190645Y-99563796D01*
X167190645Y-99722899D01*
X171940645Y-99722899D01*
X171940645Y-75472899D01*
X167190645Y-75472899D01*
X167190645Y-85124832D01*
X167187407Y-85135859D01*
X122941145Y-85135859D01*
X122941145Y-81834108D01*
X154190145Y-81834108D01*
X154190145Y-81965891D01*
X154224253Y-82093187D01*
X154236434Y-82114284D01*
X154290145Y-82207314D01*
X154383331Y-82300500D01*
X154497459Y-82366392D01*
X154624753Y-82400500D01*
X154624755Y-82400500D01*
X154756535Y-82400500D01*
X154756537Y-82400500D01*
X154883831Y-82366392D01*
X154997959Y-82300500D01*
X155091145Y-82207314D01*
X155117018Y-82162499D01*
X155167585Y-82114284D01*
X155224405Y-82100500D01*
X156106885Y-82100500D01*
X156173924Y-82120185D01*
X156214271Y-82162499D01*
X156240145Y-82207314D01*
X156333331Y-82300500D01*
X156447459Y-82366392D01*
X156574753Y-82400500D01*
X156574755Y-82400500D01*
X156706535Y-82400500D01*
X156706537Y-82400500D01*
X156833831Y-82366392D01*
X156947959Y-82300500D01*
X157041145Y-82207314D01*
X157107037Y-82093186D01*
X157141145Y-81965892D01*
X157141145Y-81834108D01*
X157107037Y-81706814D01*
X157041145Y-81592686D01*
X156947959Y-81499500D01*
X156890895Y-81466554D01*
X156833832Y-81433608D01*
X156770184Y-81416554D01*
X156706537Y-81399500D01*
X156574753Y-81399500D01*
X156447457Y-81433608D01*
X156333331Y-81499500D01*
X156333328Y-81499502D01*
X156240146Y-81592684D01*
X156214272Y-81637500D01*
X156163705Y-81685716D01*
X156106885Y-81699500D01*
X155224405Y-81699500D01*
X155157366Y-81679815D01*
X155117018Y-81637500D01*
X155091145Y-81592686D01*
X154997959Y-81499500D01*
X154940895Y-81466554D01*
X154883832Y-81433608D01*
X154820184Y-81416554D01*
X154756537Y-81399500D01*
X154624753Y-81399500D01*
X154497457Y-81433608D01*
X154383331Y-81499500D01*
X154383328Y-81499502D01*
X154290147Y-81592683D01*
X154290145Y-81592686D01*
X154224253Y-81706812D01*
X154190145Y-81834108D01*
X122941145Y-81834108D01*
X122941145Y-75755513D01*
X131990145Y-75755513D01*
X131990145Y-75944486D01*
X132019704Y-76131118D01*
X132078099Y-76310836D01*
X132163885Y-76479199D01*
X132274955Y-76632073D01*
X132408572Y-76765690D01*
X132561446Y-76876760D01*
X132640992Y-76917290D01*
X132729808Y-76962545D01*
X132729810Y-76962545D01*
X132729813Y-76962547D01*
X132826142Y-76993846D01*
X132909526Y-77020940D01*
X133096159Y-77050500D01*
X133096164Y-77050500D01*
X135285131Y-77050500D01*
X135471763Y-77020940D01*
X135651477Y-76962547D01*
X135819844Y-76876760D01*
X135972718Y-76765690D01*
X136106335Y-76632073D01*
X136217405Y-76479199D01*
X136303192Y-76310832D01*
X136361585Y-76131118D01*
X136391145Y-75944486D01*
X136391145Y-75755513D01*
X136361585Y-75568881D01*
X136303190Y-75389163D01*
X136217404Y-75220800D01*
X136106335Y-75067927D01*
X135972718Y-74934310D01*
X135819844Y-74823240D01*
X135651481Y-74737454D01*
X135471763Y-74679059D01*
X135285131Y-74649500D01*
X135285126Y-74649500D01*
X133096164Y-74649500D01*
X133096159Y-74649500D01*
X132909526Y-74679059D01*
X132729808Y-74737454D01*
X132561445Y-74823240D01*
X132474224Y-74886610D01*
X132408572Y-74934310D01*
X132408570Y-74934312D01*
X132408569Y-74934312D01*
X132274957Y-75067924D01*
X132274957Y-75067925D01*
X132274955Y-75067927D01*
X132227255Y-75133579D01*
X132163885Y-75220800D01*
X132078099Y-75389163D01*
X132019704Y-75568881D01*
X131990145Y-75755513D01*
X122941145Y-75755513D01*
X122941145Y-70031947D01*
X129690645Y-70031947D01*
X129690645Y-70900000D01*
X130690645Y-70900000D01*
X130690645Y-71400000D01*
X129690645Y-71400000D01*
X129690645Y-72268052D01*
X129727579Y-72501247D01*
X129800542Y-72725802D01*
X129907730Y-72936171D01*
X130046511Y-73127186D01*
X130213458Y-73294133D01*
X130404473Y-73432914D01*
X130614840Y-73540102D01*
X130839389Y-73613063D01*
X130839395Y-73613065D01*
X130940645Y-73629101D01*
X130940645Y-72583012D01*
X130997652Y-72615925D01*
X131124819Y-72650000D01*
X131256471Y-72650000D01*
X131383638Y-72615925D01*
X131440645Y-72583012D01*
X131440645Y-73629100D01*
X131541894Y-73613065D01*
X131541900Y-73613063D01*
X131766449Y-73540102D01*
X131976816Y-73432914D01*
X132167831Y-73294133D01*
X132334778Y-73127186D01*
X132473559Y-72936171D01*
X132580747Y-72725802D01*
X132653710Y-72501247D01*
X132690645Y-72268052D01*
X132690645Y-71400000D01*
X131690645Y-71400000D01*
X131690645Y-70900000D01*
X132690645Y-70900000D01*
X132690645Y-70031947D01*
X132653710Y-69798752D01*
X132580747Y-69574197D01*
X132473559Y-69363828D01*
X132334778Y-69172813D01*
X132167831Y-69005866D01*
X132167825Y-69005861D01*
X132124645Y-68974489D01*
X132124629Y-68974478D01*
X131994932Y-68880247D01*
X136190145Y-68880247D01*
X136190145Y-73419752D01*
X136201776Y-73478229D01*
X136201777Y-73478230D01*
X136246092Y-73544552D01*
X136312414Y-73588867D01*
X136312415Y-73588868D01*
X136370892Y-73600499D01*
X136370895Y-73600500D01*
X136370897Y-73600500D01*
X138410395Y-73600500D01*
X138410396Y-73600499D01*
X138425213Y-73597552D01*
X138468874Y-73588868D01*
X138468874Y-73588867D01*
X138468876Y-73588867D01*
X138535197Y-73544552D01*
X138579512Y-73478231D01*
X138579512Y-73478229D01*
X138579513Y-73478229D01*
X138591144Y-73419752D01*
X138591145Y-73419750D01*
X138591145Y-68880249D01*
X138591144Y-68880247D01*
X156790145Y-68880247D01*
X156790145Y-73419752D01*
X156801776Y-73478229D01*
X156801777Y-73478230D01*
X156846092Y-73544552D01*
X156912414Y-73588867D01*
X156912415Y-73588868D01*
X156970892Y-73600499D01*
X156970895Y-73600500D01*
X156970897Y-73600500D01*
X159010395Y-73600500D01*
X159010396Y-73600499D01*
X159025213Y-73597552D01*
X159068874Y-73588868D01*
X159068874Y-73588867D01*
X159068876Y-73588867D01*
X159135197Y-73544552D01*
X159179512Y-73478231D01*
X159179512Y-73478229D01*
X159179513Y-73478229D01*
X159191144Y-73419752D01*
X159191145Y-73419750D01*
X159191145Y-70031947D01*
X162690645Y-70031947D01*
X162690645Y-70900000D01*
X163690645Y-70900000D01*
X163690645Y-71400000D01*
X162690645Y-71400000D01*
X162690645Y-72268052D01*
X162727579Y-72501247D01*
X162800542Y-72725802D01*
X162907730Y-72936171D01*
X163046511Y-73127186D01*
X163213458Y-73294133D01*
X163404473Y-73432914D01*
X163614840Y-73540102D01*
X163839389Y-73613063D01*
X163839395Y-73613065D01*
X163940645Y-73629101D01*
X163940645Y-72583012D01*
X163997652Y-72615925D01*
X164124819Y-72650000D01*
X164256471Y-72650000D01*
X164383638Y-72615925D01*
X164440645Y-72583012D01*
X164440645Y-73629100D01*
X164541894Y-73613065D01*
X164541900Y-73613063D01*
X164766449Y-73540102D01*
X164976816Y-73432914D01*
X165167831Y-73294133D01*
X165334778Y-73127186D01*
X165473559Y-72936171D01*
X165580747Y-72725802D01*
X165653710Y-72501247D01*
X165690645Y-72268052D01*
X165690645Y-71400000D01*
X164690645Y-71400000D01*
X164690645Y-70900000D01*
X165690645Y-70900000D01*
X165690645Y-70031947D01*
X165653710Y-69798752D01*
X165580747Y-69574197D01*
X165473559Y-69363828D01*
X165334778Y-69172813D01*
X165167831Y-69005866D01*
X164976816Y-68867085D01*
X164766447Y-68759897D01*
X164541892Y-68686934D01*
X164440645Y-68670897D01*
X164440645Y-69716988D01*
X164383638Y-69684075D01*
X164256471Y-69650000D01*
X164124819Y-69650000D01*
X163997652Y-69684075D01*
X163940645Y-69716988D01*
X163940645Y-68670897D01*
X163839397Y-68686934D01*
X163614842Y-68759897D01*
X163404473Y-68867085D01*
X163213458Y-69005866D01*
X163046511Y-69172813D01*
X162907730Y-69363828D01*
X162800542Y-69574197D01*
X162727579Y-69798752D01*
X162690645Y-70031947D01*
X159191145Y-70031947D01*
X159191145Y-68880249D01*
X159191144Y-68880247D01*
X159179513Y-68821770D01*
X159179512Y-68821769D01*
X159135197Y-68755447D01*
X159068875Y-68711132D01*
X159068874Y-68711131D01*
X159010397Y-68699500D01*
X159010393Y-68699500D01*
X156970897Y-68699500D01*
X156970892Y-68699500D01*
X156912415Y-68711131D01*
X156912414Y-68711132D01*
X156846092Y-68755447D01*
X156801777Y-68821769D01*
X156801776Y-68821770D01*
X156790145Y-68880247D01*
X138591144Y-68880247D01*
X138579513Y-68821770D01*
X138579512Y-68821769D01*
X138535197Y-68755447D01*
X138468875Y-68711132D01*
X138468874Y-68711131D01*
X138410397Y-68699500D01*
X138410393Y-68699500D01*
X136370897Y-68699500D01*
X136370892Y-68699500D01*
X136312415Y-68711131D01*
X136312414Y-68711132D01*
X136246092Y-68755447D01*
X136201777Y-68821769D01*
X136201776Y-68821770D01*
X136190145Y-68880247D01*
X131994932Y-68880247D01*
X131976816Y-68867085D01*
X131766447Y-68759897D01*
X131541892Y-68686934D01*
X131440645Y-68670897D01*
X131440645Y-69716988D01*
X131383638Y-69684075D01*
X131256471Y-69650000D01*
X131124819Y-69650000D01*
X130997652Y-69684075D01*
X130940645Y-69716988D01*
X130940645Y-68670897D01*
X130839397Y-68686934D01*
X130614842Y-68759897D01*
X130404473Y-68867085D01*
X130213458Y-69005866D01*
X130046511Y-69172813D01*
X129907730Y-69363828D01*
X129800542Y-69574197D01*
X129727579Y-69798752D01*
X129690645Y-70031947D01*
X122941145Y-70031947D01*
X122941145Y-66355513D01*
X158990145Y-66355513D01*
X158990145Y-66544486D01*
X159019704Y-66731118D01*
X159078099Y-66910836D01*
X159163885Y-67079199D01*
X159274955Y-67232073D01*
X159408572Y-67365690D01*
X159561446Y-67476760D01*
X159640992Y-67517290D01*
X159729808Y-67562545D01*
X159729810Y-67562545D01*
X159729813Y-67562547D01*
X159826142Y-67593846D01*
X159909526Y-67620940D01*
X160096159Y-67650500D01*
X160096164Y-67650500D01*
X162285131Y-67650500D01*
X162471763Y-67620940D01*
X162651477Y-67562547D01*
X162819844Y-67476760D01*
X162972718Y-67365690D01*
X163106335Y-67232073D01*
X163217405Y-67079199D01*
X163303192Y-66910832D01*
X163361585Y-66731118D01*
X163391145Y-66544486D01*
X163391145Y-66355513D01*
X163361585Y-66168881D01*
X163303190Y-65989163D01*
X163217404Y-65820800D01*
X163106335Y-65667927D01*
X162972718Y-65534310D01*
X162819844Y-65423240D01*
X162651481Y-65337454D01*
X162471763Y-65279059D01*
X162285131Y-65249500D01*
X162285126Y-65249500D01*
X160096164Y-65249500D01*
X160096159Y-65249500D01*
X159909526Y-65279059D01*
X159729808Y-65337454D01*
X159561445Y-65423240D01*
X159474224Y-65486610D01*
X159408572Y-65534310D01*
X159408570Y-65534312D01*
X159408569Y-65534312D01*
X159274957Y-65667924D01*
X159274957Y-65667925D01*
X159274955Y-65667927D01*
X159227255Y-65733579D01*
X159163885Y-65820800D01*
X159078099Y-65989163D01*
X159019704Y-66168881D01*
X158990145Y-66355513D01*
X122941145Y-66355513D01*
X122941145Y-60131947D01*
X129565000Y-60131947D01*
X129565000Y-60368052D01*
X129601934Y-60601247D01*
X129674897Y-60825802D01*
X129782087Y-61036174D01*
X129842338Y-61119104D01*
X129842340Y-61119105D01*
X130541212Y-60420233D01*
X130552482Y-60462292D01*
X130624890Y-60587708D01*
X130727292Y-60690110D01*
X130852708Y-60762518D01*
X130894765Y-60773787D01*
X130195893Y-61472658D01*
X130278828Y-61532914D01*
X130489197Y-61640102D01*
X130713752Y-61713065D01*
X130713751Y-61713065D01*
X130946948Y-61750000D01*
X131183052Y-61750000D01*
X131416247Y-61713065D01*
X131640802Y-61640102D01*
X131851163Y-61532918D01*
X131851169Y-61532914D01*
X131934104Y-61472658D01*
X131934105Y-61472658D01*
X131235233Y-60773787D01*
X131277292Y-60762518D01*
X131402708Y-60690110D01*
X131505110Y-60587708D01*
X131577518Y-60462292D01*
X131588787Y-60420234D01*
X132287658Y-61119105D01*
X132287658Y-61119104D01*
X132347914Y-61036169D01*
X132347918Y-61036163D01*
X132455102Y-60825802D01*
X132528065Y-60601247D01*
X132565000Y-60368052D01*
X132565000Y-60131947D01*
X132528065Y-59898752D01*
X132455102Y-59674197D01*
X132365902Y-59499130D01*
X132365901Y-59499128D01*
X132347916Y-59463831D01*
X132334765Y-59445730D01*
X133674500Y-59445730D01*
X133674500Y-61054269D01*
X133677353Y-61084699D01*
X133677353Y-61084701D01*
X133722206Y-61212880D01*
X133722207Y-61212882D01*
X133802850Y-61322150D01*
X133912118Y-61402793D01*
X133954845Y-61417744D01*
X134040299Y-61447646D01*
X134070730Y-61450500D01*
X134070734Y-61450500D01*
X135679270Y-61450500D01*
X135709699Y-61447646D01*
X135709701Y-61447646D01*
X135773790Y-61425219D01*
X135837882Y-61402793D01*
X135947150Y-61322150D01*
X136027793Y-61212882D01*
X136060607Y-61119105D01*
X136072646Y-61084701D01*
X136072646Y-61084699D01*
X136075500Y-61054269D01*
X136075500Y-60131947D01*
X159065000Y-60131947D01*
X159065000Y-60368052D01*
X159101934Y-60601247D01*
X159174897Y-60825802D01*
X159282087Y-61036174D01*
X159342338Y-61119104D01*
X159342340Y-61119105D01*
X160041212Y-60420233D01*
X160052482Y-60462292D01*
X160124890Y-60587708D01*
X160227292Y-60690110D01*
X160352708Y-60762518D01*
X160394765Y-60773787D01*
X159695893Y-61472658D01*
X159778828Y-61532914D01*
X159989197Y-61640102D01*
X160213752Y-61713065D01*
X160213751Y-61713065D01*
X160446948Y-61750000D01*
X160683052Y-61750000D01*
X160916247Y-61713065D01*
X161140802Y-61640102D01*
X161351163Y-61532918D01*
X161351169Y-61532914D01*
X161434104Y-61472658D01*
X161434105Y-61472658D01*
X160735233Y-60773787D01*
X160777292Y-60762518D01*
X160902708Y-60690110D01*
X161005110Y-60587708D01*
X161077518Y-60462292D01*
X161088787Y-60420234D01*
X161787658Y-61119105D01*
X161787658Y-61119104D01*
X161847914Y-61036169D01*
X161847918Y-61036163D01*
X161955102Y-60825802D01*
X162028065Y-60601247D01*
X162065000Y-60368052D01*
X162065000Y-60131947D01*
X162028065Y-59898752D01*
X161955102Y-59674197D01*
X161865902Y-59499130D01*
X161865901Y-59499128D01*
X161847916Y-59463831D01*
X161834765Y-59445730D01*
X163174500Y-59445730D01*
X163174500Y-61054269D01*
X163177353Y-61084699D01*
X163177353Y-61084701D01*
X163222206Y-61212880D01*
X163222207Y-61212882D01*
X163302850Y-61322150D01*
X163412118Y-61402793D01*
X163454845Y-61417744D01*
X163540299Y-61447646D01*
X163570730Y-61450500D01*
X163570734Y-61450500D01*
X165179270Y-61450500D01*
X165209699Y-61447646D01*
X165209701Y-61447646D01*
X165273790Y-61425219D01*
X165337882Y-61402793D01*
X165447150Y-61322150D01*
X165527793Y-61212882D01*
X165560607Y-61119105D01*
X165572646Y-61084701D01*
X165572646Y-61084699D01*
X165575500Y-61054269D01*
X165575500Y-59445730D01*
X165572646Y-59415300D01*
X165572646Y-59415298D01*
X165527793Y-59287119D01*
X165527792Y-59287117D01*
X165447150Y-59177850D01*
X165337882Y-59097207D01*
X165337880Y-59097206D01*
X165209700Y-59052353D01*
X165179270Y-59049500D01*
X165179266Y-59049500D01*
X163570734Y-59049500D01*
X163570730Y-59049500D01*
X163540300Y-59052353D01*
X163540298Y-59052353D01*
X163412119Y-59097206D01*
X163412117Y-59097207D01*
X163302850Y-59177850D01*
X163222207Y-59287117D01*
X163222206Y-59287119D01*
X163177353Y-59415298D01*
X163177353Y-59415300D01*
X163174500Y-59445730D01*
X161834765Y-59445730D01*
X161787658Y-59380894D01*
X161787658Y-59380893D01*
X161088787Y-60079765D01*
X161077518Y-60037708D01*
X161005110Y-59912292D01*
X160902708Y-59809890D01*
X160777292Y-59737482D01*
X160735234Y-59726212D01*
X161434105Y-59027340D01*
X161434104Y-59027338D01*
X161351174Y-58967087D01*
X161140802Y-58859897D01*
X160916247Y-58786934D01*
X160916248Y-58786934D01*
X160683052Y-58750000D01*
X160446948Y-58750000D01*
X160213752Y-58786934D01*
X159989197Y-58859897D01*
X159778830Y-58967084D01*
X159695894Y-59027340D01*
X160394766Y-59726212D01*
X160352708Y-59737482D01*
X160227292Y-59809890D01*
X160124890Y-59912292D01*
X160052482Y-60037708D01*
X160041212Y-60079766D01*
X159342340Y-59380894D01*
X159282084Y-59463830D01*
X159174897Y-59674197D01*
X159101934Y-59898752D01*
X159065000Y-60131947D01*
X136075500Y-60131947D01*
X136075500Y-59445730D01*
X136072646Y-59415300D01*
X136072646Y-59415298D01*
X136027793Y-59287119D01*
X136027792Y-59287117D01*
X135947150Y-59177850D01*
X135942430Y-59174366D01*
X135942429Y-59174365D01*
X135837886Y-59097209D01*
X135837880Y-59097206D01*
X135709700Y-59052353D01*
X135679270Y-59049500D01*
X135679266Y-59049500D01*
X134070734Y-59049500D01*
X134070730Y-59049500D01*
X134040300Y-59052353D01*
X134040298Y-59052353D01*
X133912119Y-59097206D01*
X133912117Y-59097207D01*
X133802850Y-59177850D01*
X133722207Y-59287117D01*
X133722206Y-59287119D01*
X133677353Y-59415298D01*
X133677353Y-59415300D01*
X133674500Y-59445730D01*
X132334765Y-59445730D01*
X132287658Y-59380894D01*
X132287658Y-59380893D01*
X131588787Y-60079765D01*
X131577518Y-60037708D01*
X131505110Y-59912292D01*
X131402708Y-59809890D01*
X131277292Y-59737482D01*
X131235234Y-59726212D01*
X131934105Y-59027340D01*
X131934104Y-59027338D01*
X131851174Y-58967087D01*
X131640802Y-58859897D01*
X131416247Y-58786934D01*
X131416248Y-58786934D01*
X131183052Y-58750000D01*
X130946948Y-58750000D01*
X130713752Y-58786934D01*
X130489197Y-58859897D01*
X130278830Y-58967084D01*
X130195894Y-59027340D01*
X130894766Y-59726212D01*
X130852708Y-59737482D01*
X130727292Y-59809890D01*
X130624890Y-59912292D01*
X130552482Y-60037708D01*
X130541212Y-60079766D01*
X129842340Y-59380894D01*
X129782084Y-59463830D01*
X129674897Y-59674197D01*
X129601934Y-59898752D01*
X129565000Y-60131947D01*
X122941145Y-60131947D01*
X122941145Y-58653480D01*
X122941340Y-58646528D01*
X122950711Y-58479650D01*
X122958043Y-58349090D01*
X122959597Y-58335298D01*
X123008914Y-58045031D01*
X123012007Y-58031483D01*
X123093510Y-57748578D01*
X123098103Y-57735453D01*
X123202456Y-57483520D01*
X123210765Y-57463459D01*
X123216796Y-57450935D01*
X123359210Y-57193254D01*
X123366608Y-57181481D01*
X123373128Y-57172292D01*
X123536973Y-56941369D01*
X123545632Y-56930510D01*
X123741815Y-56710978D01*
X123751635Y-56701157D01*
X123971178Y-56504958D01*
X123982027Y-56496306D01*
X124222153Y-56325923D01*
X124233906Y-56318538D01*
X124491595Y-56176115D01*
X124504108Y-56170089D01*
X124776115Y-56057415D01*
X124789223Y-56052829D01*
X125072138Y-55971318D01*
X125085670Y-55968228D01*
X125375943Y-55918904D01*
X125389748Y-55917348D01*
X125686200Y-55900695D01*
X125693155Y-55900500D01*
X169687157Y-55900500D01*
X169694112Y-55900695D01*
G37*
%TD.AperFunction*%
%TD*%
M02*
